<svg width="447" height="447" viewBox="0 0 447 447" fill="none" xmlns="http://www.w3.org/2000/svg">
<path d="M236.28 213.395C463.152 35.0057 336.946 -59.474 229.692 208.449C337.045 -59.5166 180.46 -78.1652 221.511 207.479C180.56 -78.2077 35.5635 -16.159 213.854 210.755C35.4215 -16.2158 -59.0583 109.99 208.765 217.286C-59.0583 109.99 -77.8489 266.518 207.837 225.567C-77.8489 266.518 -15.8001 411.514 211.114 233.224C-15.7576 411.614 110.448 506.093 217.702 238.171C110.349 506.136 266.934 524.785 225.883 239.141C266.834 524.827 411.831 462.778 233.54 235.864C411.93 462.736 506.41 336.53 238.487 229.276C506.452 336.63 525.101 180.044 239.457 221.095C525.2 180.002 463.152 35.0057 236.28 213.395Z" fill="#AA468F"/>
</svg>
