<?xml version="1.0" encoding="UTF-8"?>
<svg version="1.1" viewBox="0 0 1600 1600" width="1280" height="1280" xmlns="http://www.w3.org/2000/svg">
<path transform="translate(937 465)" d="m0 0c0.74 0.376 1.48 0.752 2.24 1.14 2.81 1.64 2.81 1.64 5.8 4.06 13.7 10.5 29.9 8.97 46.2 8.8 4.37-0.0353 8.74-0.0121 13.1 0.00368 7.55 0.0195 15.1 0.00314 22.6-0.0382 10.9-0.0596 21.8-0.0615 32.7-0.0495 17.6 0.0181 35.3-0.00634 52.9-0.0601 16.8-0.0511 33.6-0.0881 50.4-0.101 1.53-0.00116 1.53-0.00116 3.1-0.00234 11.1-0.00802 22.2-0.0124 33.4-0.0151 2.95-7.69e-4 5.89-0.00155 8.84-0.00236 1.94-5.02e-4 3.88-9.42e-4 5.82-0.00132 12.3-0.00266 24.5-0.0213 36.8-0.0575 6.19-0.018 12.4-0.0292 18.6-0.0383 4.09-0.00644 8.18-0.0164 12.3-0.0355 53-0.243 53-0.243 71.2 17.2 0.767 0.715 1.53 1.43 2.32 2.17 4.54 4.61 7.77 9.42 10.6 15.2 0.347 0.7 0.693 1.4 1.05 2.12 3.52 7.28 6.07 14.8 8.52 22.5 0.499 1.53 0.999 3.07 1.5 4.6 1.09 3.34 2.17 6.68 3.25 10 1.87 5.8 3.76 11.6 5.66 17.4 5.15 15.7 10.3 31.4 15.4 47.1 0.253 0.781 0.505 1.56 0.765 2.37 0.248 0.767 0.496 1.53 0.752 2.32 0.244 0.753 0.487 1.51 0.738 2.28 0.484 1.5 0.968 2.99 1.45 4.49 3.48 10.8 7.03 21.5 10.6 32.2 7.51 22.4 7.51 22.4 10.1 30.5 0.232 0.701 0.464 1.4 0.703 2.13 2.62 8.23 3.29 14.7-0.39 22.6-3.37 6.24-7.54 9.59-14.4 11.8-0.866 0.0825-1.73 0.165-2.62 0.25-0.646 0.0748-1.29 0.15-1.96 0.227-6.62 0.44-11.7-1.38-17-5.23-6.79-6.45-9.07-17-11.9-25.7-1.22-3.72-2.47-7.42-3.72-11.1-5.87-17.4-11.6-34.9-17.3-52.5-4.24-13.1-8.53-26.1-12.9-39.1-2.96-8.81-5.87-17.6-8.71-26.5-0.44-1.37-0.44-1.37-0.888-2.76-1.43-4.43-2.84-8.86-4.25-13.3-0.517-1.61-1.03-3.22-1.55-4.83-0.338-1.08-0.338-1.08-0.684-2.18-2.99-9.24-2.99-9.24-9.07-16.5-4.6-2.34-8.14-2.59-13.2-2.58-1.35 0.00338-1.35 0.00338-2.74 0.00684-0.69 0.0029-1.38 0.0058-2.09 0.00879-0.206 29.8-0.365 59.7-0.46 89.5-0.0113 3.54-0.0229 7.08-0.0348 10.6-0.00236 0.704-0.00472 1.41-0.00715 2.13-0.0389 11.3-0.11 22.7-0.193 34-0.0848 11.7-0.134 23.3-0.152 35-0.0116 6.54-0.0386 13.1-0.105 19.6-0.74 37.6-0.74 37.6 8.88 73.6 1.59 3.82 2.81 7.75 4.05 11.7 0.436 1.31 0.875 2.62 1.32 3.93 0.946 2.8 1.89 5.61 2.83 8.41 1.06 3.17 2.13 6.35 3.19 9.52 3.03 9.02 6.04 18 9.06 27.1 0.472 1.41 0.472 1.41 0.954 2.86 7.81 23.4 15.4 46.9 23 70.4 1.26 3.88 2.51 7.77 3.77 11.7 0.367 1.13 0.367 1.13 0.741 2.29 3.87 12 7.83 23.9 11.8 35.8 4.01 12 7.93 24 11.8 36 5.27 16.3 10.6 32.5 16.1 48.7 3.14 9.37 6.26 18.7 9.38 28.1 1.27 3.81 2.54 7.62 3.81 11.4 0.59 1.77 1.18 3.54 1.77 5.32 1.33 3.99 2.66 7.98 4.03 12 0.236 0.696 0.473 1.39 0.716 2.11 0.626 1.84 1.26 3.68 1.89 5.51 0.845 2.83 0.845 2.83 0.845 5.83h100c-9.49-29.3-9.49-29.3-19-58.6-0.286-0.88-0.572-1.76-0.867-2.67-4.27-13.1-8.61-26.3-13-39.4-4.04-12.1-7.98-24.1-11.9-36.2-3.67-11.3-7.4-22.7-11.2-34-4.26-12.7-8.43-25.4-12.6-38.2-3.85-11.9-7.74-23.8-11.7-35.6-0.728-2.18-1.45-4.35-2.18-6.53-0.491-1.47-0.981-2.95-1.47-4.42-0.246-0.741-0.493-1.48-0.747-2.24-1.74-5.22-3.5-10.4-5.27-15.6-1.32-3.89-2.62-7.79-3.92-11.7-0.631-1.88-1.27-3.76-1.91-5.64-7.95-23.2-7.95-23.2-3.8-33.5 3.5-5.96 8.93-10.6 15.5-12.7 6.9-1.01 12.7-0.107 18.8 3.34 11.1 8.28 14.2 26.4 18.3 39 1.5 4.68 3.02 9.35 4.53 14 0.337 1.04 0.674 2.08 1.02 3.15 4.71 14.5 9.49 29.1 14.3 43.6 0.763 2.32 1.53 4.64 2.29 6.97 5.62 17.1 11.2 34.2 17 51.2 7.44 22.2 14.7 44.6 21.9 66.9 2.4 7.37 4.8 14.7 7.21 22.1 0.334 1.03 0.669 2.05 1.01 3.11 4.3 13.2 8.65 26.4 13 39.5 3.72 11.1 7.44 22.3 11.1 33.5 0.479 1.46 0.96 2.93 1.44 4.39 0.667 2.02 1.33 4.05 1.98 6.07 0.374 1.14 0.748 2.29 1.13 3.46 2.84 10 3.33 19.5 3.31 29.9 0.00302 1.64 0.00691 3.27 0.0116 4.91 0.0103 4.48 0.0081 8.95 0.00382 13.4-0.00247 4.84 0.00655 9.67 0.014 14.5 0.0127 9.47 0.0145 18.9 0.0122 28.4-0.00178 7.7-3.06e-5 15.4 0.00422 23.1 5.95e-4 1.1 0.00119 2.19 0.0018 3.32 0.00121 2.23 0.00243 4.46 0.00364 6.68 0.0109 20.9 0.00871 41.8 0.00262 62.6-0.00517 19.1 0.00608 38.2 0.0251 57.3 0.0194 19.6 0.0276 39.2 0.0239 58.8-0.00191 11 5.61e-4 22 0.0147 33 0.0119 9.37 0.0133 18.7 0.00121 28.1-0.00588 4.78-0.00702 9.55 5e-3 14.3 0.0109 4.38 0.00771 8.76-0.00626 13.1-0.00264 1.58-3.1e-4 3.15 0.00774 4.73 0.0603 12.7-0.944 25.2-7.01 36.6-0.518 1-0.518 1-1.05 2.02-8.37 15.5-22.7 25.4-39.2 30.9-10.6 2.91-21.4 2.41-32.3 2.36-2.46 0.00478-4.93 0.0113-7.39 0.0194-5.36 0.0136-10.7 0.0149-16.1 0.00522-8.03-0.0144-16.1-0.00573-24.1 0.00736-13.7 0.0216-27.4 0.0243-41.1 0.0166-13.9-0.00776-27.7-0.00684-41.6 0.00462-0.876 7.18e-4 -1.75 0.00144-2.66 0.00217-3.57 0.00295-7.14 0.00596-10.7 0.00904-36.2 0.0313-72.4 0.0366-109 0.0317-5-6.77e-4 -10-0.00132-15-0.00193-0.994-1.22e-4 -1.99-2.44e-4 -3.01-3.7e-4 -22-0.00254-44.1 0.00266-66.1 0.00942-5.03 0.00154-10.1 0.00303-15.1 0.00453-2.02 6.03e-4 -4.04 0.00121-6.06 0.00181-1 2.99e-4 -2 5.99e-4 -3.03 9.07e-4 -2.02 6.07e-4 -4.05 0.00122-6.07 0.00183-57.4 0.0173-115 0.0266-172 0.0181-1.6-2.34e-4 -1.6-2.34e-4 -3.22-4.73e-4 -11.9-0.00175-23.7-0.0036-35.6-0.0055-1.07-1.71e-4 -2.14-3.42e-4 -3.24-5.18e-4 -8.9-0.00142-8.9-0.00142-13-0.00208-68.5-0.0111-137 0.00401-205 0.0415-17.3 0.00944-34.5 0.0188-51.8 0.0277-1.59 8.2e-4 -1.59 8.2e-4 -3.22 0.00166-32.8 0.0167-65.5 0.0261-98.3 0.0278-1.03 5.27e-5 -2.06 1.05e-4 -3.12 1.6e-4 -22.6 0.00108-45.1 3.37e-4 -67.7-0.00208-8.08-8.51e-4 -16.2-0.00158-24.2-0.00226-2.01-1.71e-4 -4.02-3.48e-4 -6.03-5.34e-4 -32-0.0029-64 0.0114-96 0.034-33.1 0.0233-66.3 0.0244-99.4 3.13e-4 -3.56-0.0025-7.12-0.00491-10.7-0.00724-1.31-8.71e-4 -1.31-8.71e-4 -2.65-0.00176-13.8-0.00865-27.7 0.0028-41.5 0.0226-13.6 0.0191-27.2 0.0167-40.8-0.00841-7.97-0.0141-15.9-0.0119-23.9 0.0147-5.92 0.0179-11.8 0.00438-17.8-0.0212-2.38-0.00544-4.75-9.08e-4 -7.13 0.015-21.8 0.136-41.3-3.77-57.5-19.5-5.38-5.47-9.27-11.4-12.7-18.3l-1.02-1.96c-4-8.37-4.28-17.6-4.27-26.7-0.00672-1.12-0.0134-2.24-0.0204-3.39-0.0189-3.67-0.0229-7.35-0.0251-11-0.00643-2.57-0.0132-5.13-0.0202-7.7-0.0119-5.37-0.0158-10.7-0.0145-16.1 0.0012-6.19-0.02-12.4-0.0515-18.6-0.0294-5.98-0.0365-12-0.0353-17.9-0.00236-2.53-0.0112-5.07-0.0267-7.6-0.0196-3.54-0.0138-7.08-0.00179-10.6-0.0112-1.04-0.0225-2.08-0.0341-3.15 0.0631-7.31 1.4-12.5 6.16-18.2 5.21-4.29 10.1-6.65 16.8-7.39 6.61 0.696 12.9 2.44 17.6 7.38 3.73 5.74 6.12 10.7 6.13 17.6 0.00401 0.914 0.00802 1.83 0.0121 2.77-5.29e-4 0.995-0.00106 1.99-0.0016 3.02 0.00347 1.05 0.00695 2.11 0.0105 3.19 0.00735 2.29 0.0127 4.58 0.0163 6.87 0.00717 3.62 0.0228 7.25 0.0413 10.9 0.0525 10.3 0.1 20.6 0.116 30.9 0.0101 6.3 0.0394 12.6 0.0813 18.9 0.0123 2.4 0.0174 4.8 0.0152 7.2-0.00235 3.36 0.0198 6.72 0.0475 10.1-0.0066 0.991-0.0132 1.98-0.02 3 0.0774 5.71 0.657 9.14 4.55 13.6 10.9 8.43 29.5 5.14 42.6 5.12 2.43 2.45e-4 4.87 9.3e-4 7.3 0.00201 5.3 0.00134 10.6-4.37e-4 15.9-0.00497 7.93-0.00677 15.9-0.00777 23.8-0.00767 13.5-9.24e-6 27-0.00484 40.6-0.0123 13.7-0.00757 27.4-0.013 41.1-0.0158 1.3-2.69e-4 1.3-2.69e-4 2.62-5.43e-4 3.53-7.26e-4 7.05-0.00144 10.6-0.00214 42.7-0.00851 85.4-0.0278 128-0.049 13.8-0.00684 27.7-0.0132 41.5-0.0193 0.977-4.31e-4 1.95-8.61e-4 2.96-0.00131 3.95-0.00174 7.91-0.00348 11.9-0.00522 67.6-0.0297 135-0.062 203-0.102 5.31-0.00316 10.6-0.00631 15.9-0.00946 1.58-9.37e-4 1.58-9.37e-4 3.19-0.00189 10.7-0.00633 21.3-0.0127 32-0.019 2.14-0.00126 4.28-0.00253 6.42-0.0038 68.7-0.0407 137-0.0668 206-0.0828 49.4-0.0115 98.8-0.0248 148-0.0525 1.52-8.53e-4 1.52-8.53e-4 3.08-0.00172 22.3-0.0125 44.6-0.0262 66.9-0.0409 8.97-0.00591 17.9-0.0117 26.9-0.0174 1.47-9.47e-4 1.47-9.47e-4 2.97-0.00191 31.6-0.0203 63.3-0.0284 94.9-0.0302 31.9-0.00193 63.7-0.0165 95.6-0.0485 4.4-0.00442 8.79-0.0087 13.2-0.0129 0.862-8.28e-4 1.72-0.00166 2.61-0.00251 13.7-0.0128 27.3-0.0121 41-0.00582 13.4 0.00586 26.9-0.00243 40.3-0.026 7.88-0.0134 15.8-0.0157 23.6-0.00206 5.84 0.00893 11.7-0.00281 17.5-0.0228 2.36-0.00483 4.71-0.00286 7.07 0.00649 3.19 0.0117 6.37-0.00105 9.56-0.0201 0.917 0.00926 1.83 0.0185 2.78 0.0281 5.89-0.0699 9.35-1.1 14.2-4.53 3.61-4.82 4.12-9.05 4.13-15 0.00446-1.23 0.00892-2.45 0.0135-3.72-8.93e-5 -1.36-2.79e-4 -2.73-5.59e-4 -4.09 0.0033-1.45 0.00703-2.89 0.0111-4.34 0.01-3.98 0.0137-7.96 0.0164-11.9 0.0039-4.29 0.0135-8.58 0.0222-12.9 0.0198-10.4 0.0298-20.7 0.0387-31.1 0.00438-4.88 0.00975-9.76 0.015-14.6 0.017-16.2 0.0315-32.4 0.0387-48.6 0.00191-4.21 0.00383-8.41 0.00579-12.6 4.84e-4 -1.05 9.67e-4 -2.09 0.00147-3.17 0.0083-16.9 0.0336-33.9 0.0661-50.8 0.0331-17.4 0.0511-34.8 0.0543-52.2 0.00217-9.77 0.0109-19.5 0.0365-29.3 0.0217-8.32 0.0298-16.6 0.02-25-0.00455-4.24-0.00261-8.49 0.0168-12.7 0.0176-3.89 0.0167-7.77 0.0011-11.7-0.00238-1.41 0.00199-2.81 0.0138-4.22 0.103-10.2 0.103-10.2-4.51-19.1-4.57-4.34-8.01-5.12-14.2-5.13-1.05-0.00384-2.1-0.00768-3.18-0.0116-1.15 8.66e-4 -2.3 0.00173-3.49 0.00263-1.22-0.00297-2.45-0.00594-3.71-9e-3 -3.4-0.00718-6.8-0.00986-10.2-0.0106-3.67-0.00185-7.33-0.0094-11-0.0161-8.02-0.0136-16-0.0196-24-0.024-5-0.00276-10-7e-3 -15-0.0115-13.9-0.0122-27.7-0.0225-41.6-0.0259-0.887-2.2e-4 -1.77-4.39e-4 -2.69-6.65e-4 -1.33-3.27e-4 -1.33-3.27e-4 -2.69-6.61e-4 -1.8-4.43e-4 -3.6-8.9e-4 -5.4-0.00134-0.893-2.21e-4 -1.79-4.43e-4 -2.71-6.71e-4 -14.5-0.00395-29-0.0214-43.4-0.0447-14.9-0.0237-29.7-0.0362-44.6-0.0373-8.35-9.17e-4 -16.7-0.00668-25-0.0248-7.11-0.0154-14.2-0.0205-21.3-0.0123-3.63 0.00391-7.25 0.00296-10.9-0.0111-3.93-0.0151-7.86-0.00689-11.8 0.00358-1.15-0.00806-2.29-0.0161-3.48-0.0244-6.44 0.0402-11.4 0.332-16.3 5.02-4.17 5.76-7.2 11.9-10.2 18.3-0.783 1.66-0.783 1.66-1.58 3.35-1.52 3.23-3.04 6.47-4.54 9.71-1.41 3.02-2.83 6.04-4.25 9.06-0.476 1.02-0.476 1.02-0.961 2.05-3.46 7.36-7.12 14.6-10.8 21.9-6.01 11.9-12 23.9-17.7 35.9-20.5 43-20.5 43-43.3 52.1-11.8 4.05-23 5.16-35.3 5.13-1.48 0.00263-1.48 0.00263-2.98 0.00531-3.28 0.00463-6.56 0.0022-9.84-2.34e-4 -2.38 0.00187-4.76 0.00417-7.15 0.00687-5.17 0.00484-10.3 0.00657-15.5 0.00554-7.69-0.00153-15.4 0.00264-23.1 0.00787-14.5 0.00966-29.1 0.0125-43.6 0.0131-11.2 4.6e-4 -22.5 0.00252-33.7 0.0057-3.23 8.98e-4 -6.47 0.00179-9.7 0.00267-1.21 3.32e-4 -1.21 3.32e-4 -2.44 6.7e-4 -22.6 0.00615-45.2 0.0101-67.8 0.00966-0.852-1.56e-5 -1.7-3.12e-5 -2.58-4.72e-5 -4.32-8.31e-5 -8.64-1.82e-4 -13-2.85e-4 -0.858-1.99e-5 -1.72-3.99e-5 -2.6-6.04e-5 -1.73-4.04e-5 -3.47-8.22e-5 -5.2-1.25e-4 -27-6.13e-4 -54 0.00689-80.9 0.0206-30.3 0.0154-60.7 0.024-91 0.023-3.24-7.46e-5 -6.47-1.23e-4 -9.71-1.54e-4 -0.797-1.17e-5 -1.59-2.33e-5 -2.41-3.53e-5 -12.8-3.07e-5 -25.6 0.00635-38.4 0.015-12.9 0.00849-25.8 0.00946-38.6 0.00289-7.64-0.00369-15.3-0.00189-22.9 0.00794-5.72 0.00673-11.4 0.00292-17.1-0.00487-2.3-0.00153-4.61 2.76e-4 -6.91 0.00586-33.5 0.0758-33.5 0.0758-44.8-5.38-0.989-0.459-0.989-0.459-2-0.926-23.5-11.3-32.8-35.7-43.3-57.9-3.28-6.94-6.68-13.8-10.1-20.7-6.74-13.4-13.5-26.7-19.9-40.3-1.33-2.79-2.66-5.57-4-8.36-0.892-1.87-1.78-3.75-2.67-5.62-1.31-2.76-2.63-5.52-3.96-8.27-0.577-1.24-0.577-1.24-1.16-2.5-2.48-5.07-4.82-8.19-9.52-11.4-3.08-1.02-5.92-1.13-9.16-1.13-1.05-0.00446-2.1-0.00892-3.18-0.0135-1.73 2.77e-4 -1.73 2.77e-4 -3.49 5.59e-4 -1.22-0.00368-2.45-0.00735-3.71-0.0111-3.4-0.00912-6.79-0.0137-10.2-0.0164-3.66-0.00391-7.32-0.0135-11-0.0222-8.84-0.0198-17.7-0.0298-26.5-0.0387-4.17-0.00438-8.33-0.00975-12.5-0.015-13.8-0.017-27.7-0.0315-41.5-0.0387-3.59-0.00191-7.18-0.00383-10.8-0.00579-0.893-4.84e-4 -1.79-9.67e-4 -2.71-0.00147-14.5-0.0083-28.9-0.0336-43.4-0.0661-14.9-0.0331-29.7-0.0511-44.6-0.0543-8.34-0.00217-16.7-0.0109-25-0.0365-7.1-0.0217-14.2-0.0298-21.3-0.02-3.62 0.00455-7.24 0.00264-10.9-0.0168-3.93-0.0209-7.86-0.0106-11.8 0.00253-1.14-0.011-2.28-0.0219-3.46-0.0332-6.35 0.0514-11.7 0.559-16.9 4.52-5.04 6.23-4.56 13.5-4.5 21.2-0.00552 1.3-0.011 2.61-0.0167 3.95-0.0119 2.82-0.0115 5.64-0.00141 8.46 0.0156 4.47 0.00183 8.94-0.016 13.4-0.0307 8.68-0.0323 17.4-0.0303 26 0.00139 11-0.00907 22.1-0.0486 33.1-0.0149 4.43-0.0147 8.87-0.00252 13.3 0.00359 2.1 3.79e-4 4.2-0.00578 6.29-0.00735 2.55-0.00418 5.1 0.012 7.64-0.0593 9.97-1.49 17.6-8.53 24.9-5.62 5.01-11.3 5.28-18.6 5.07-6.03-0.753-10.2-2.95-14.1-7.63-3.98-5.77-5.28-9.83-5.3-16.9-0.00368-0.73-0.00735-1.46-0.0111-2.21-0.011-2.45-0.0149-4.91-0.0187-7.36-0.00627-1.76-0.0129-3.52-0.0199-5.27-0.0211-5.78-0.0314-11.6-0.0414-17.3-0.00405-1.99-0.00817-3.99-0.0124-5.98-0.0191-9.38-0.0333-18.8-0.0416-28.1-0.00975-10.8-0.036-21.6-0.0765-32.4-0.0303-8.36-0.045-16.7-0.0483-25.1-0.00234-4.99-0.0112-9.97-0.0365-15-0.0235-4.7-0.0274-9.4-0.0172-14.1 4.91e-4 -1.71-0.0057-3.43-0.0196-5.14-0.0859-11.3 1.23-21 4.49-31.9 0.325-1.08 0.65-2.17 0.985-3.29 0.862-2.81 1.77-5.6 2.7-8.39 0.339-1.03 0.677-2.07 1.03-3.13 1.09-3.32 2.19-6.63 3.29-9.95 0.773-2.35 1.55-4.69 2.32-7.04 4.34-13.2 8.71-26.3 13.1-39.5 5.4-16.1 10.7-32.3 16-48.5 0.344-1.05 0.344-1.05 0.696-2.12 5.93-18.1 11.8-36.2 17.7-54.3 3.93-12.1 7.93-24.2 12-36.3 3.8-11.3 7.52-22.7 11.2-34.1 3.9-12.1 7.85-24.1 11.9-36.1 4.44-13.3 8.8-26.6 13.1-39.9 4.27-13.1 8.56-26.3 12.9-39.4 0.24-0.718 0.48-1.44 0.727-2.18 1.51-4.51 3.01-9.01 4.52-13.5 10.7-31.8 21.2-63.7 31.5-95.6 6.87-21.2 13.8-42.4 20.9-63.6 3.1-9.25 6.18-18.5 9.26-27.8 0.942-2.83 1.88-5.65 2.83-8.48 0.298-0.894 0.596-1.79 0.903-2.71 0.592-1.77 1.18-3.55 1.78-5.32 1.53-4.57 3.04-9.14 4.53-13.7 0.309-0.94 0.618-1.88 0.936-2.85 0.584-1.78 1.16-3.56 1.74-5.34 5.64-17.1 14.9-30.4 30.7-39.7 13.9-7.01 29-7.7 44.4-7.61 1.52 0.00216 3.04 0.00339 4.56 0.0038 3.28 0.00281 6.56 0.0119 9.83 0.0261 5.32 0.023 10.6 0.0322 16 0.0397 6.72 0.0105 13.4 0.0247 20.1 0.0432 13.2 0.036 26.3 0.0437 39.5 0.0424 4.16-4.46e-5 8.31 7.79e-5 12.5 2.29e-4 1.55 5.14e-5 1.55 5.14e-5 3.14 1.04e-4 29.6 0.00159 59.2 0.0305 88.8 0.193 16.8 0.0919 33.7 0.14 50.5 0.147 10.3 0.00599 20.5 0.0518 30.8 0.15 7.02 0.0637 14 0.0792 21.1 0.0582 4.03-0.0106 8.05-0.00102 12.1 0.0676 19 0.308 33-1.77 49-12.9 23.2-15.2 51.8-22.6 78.5-28.7 0.749-0.178 1.5-0.355 2.27-0.538 64.3-15.1 137-2.16 195 27.8zm-280 57.8c-0.548 0.399-1.1 0.798-1.66 1.21-31.9 23.5-57.9 52.7-76.3 87.8-0.397 0.749-0.794 1.5-1.2 2.27-11.7 22.4-19.3 46.8-23.8 71.7-0.232 1.28-0.464 2.56-0.703 3.88-9.94 60.1 5.03 127 39.8 176 0.63 0.871 1.26 1.74 1.91 2.64 0.682 0.954 1.36 1.91 2.07 2.89 5.46 7.46 11.4 14.5 17.5 21.4 1.02 1.18 2.03 2.36 3.03 3.55 2.52 2.99 4.97 5.83 7.99 8.33 3.01 2.55 5.88 5.19 8.72 7.92 11.9 11.4 25.5 20.6 39.8 28.8 1.39 0.814 2.77 1.65 4.14 2.5 6.31 3.9 12.8 7.08 19.6 10 1.09 0.475 2.18 0.95 3.3 1.44 12.5 5.36 25.2 9.69 38.3 13.1 15.3 3.97 15.3 3.97 19.9 11.1 3.19 6.07 4.84 11.6 3.04 18.4-2.13 6.05-4.84 10.1-10.4 13.5-13.8 6.56-30.5-0.688-44-5-1.39-0.441-1.39-0.441-2.81-0.891-34.4-11.1-66.7-29.7-94.2-53.1-1.1-0.911-2.19-1.82-3.29-2.73-11.4-9.51-22.2-19.6-31.4-31.3-1.76-2.23-3.55-4.42-5.38-6.59-31.4-37.5-51.1-83.4-60.3-131-0.701-3.53-1.45-7.04-2.21-10.6-0.268-1.25-0.536-2.49-0.813-3.78-0.203-0.943-0.407-1.89-0.616-2.86-18.5-0.0234-36.9-0.041-55.4-0.0518-8.58-0.00515-17.2-0.0122-25.7-0.0236-7.48-0.00999-15-0.0164-22.4-0.0186-3.96-0.0013-7.91-0.00434-11.9-0.0116-3.73-0.00683-7.46-0.00887-11.2-0.00738-2.01-4.03e-4 -4.02-0.00576-6.03-0.0113-14.2-0.687-14.2-0.687-26.3 5.12-5.04 8.08-7.65 17.4-10.6 26.4-0.526 1.6-1.05 3.21-1.58 4.81-1.09 3.32-2.18 6.63-3.26 9.95-1.48 4.51-2.97 9.01-4.48 13.5-0.235 0.701-0.47 1.4-0.712 2.12-0.477 1.42-0.953 2.84-1.43 4.27-5.42 16.2-10.7 32.4-16 48.7-4.27 13.1-8.58 26.2-13 39.3-4.73 14.1-9.38 28.3-14 42.4-0.342 1.05-0.684 2.1-1.04 3.18-3.42 10.5-6.83 21-10.2 31.5-0.252 0.78-0.504 1.56-0.764 2.36-0.248 0.766-0.496 1.53-0.751 2.32-0.49 1.51-0.979 3.03-1.47 4.54-0.241 0.744-0.481 1.49-0.73 2.26-3.83 11.8-7.75 23.7-11.7 35.5-4.34 13-8.56 25.9-12.8 38.9-4.07 12.6-8.27 25.1-12.7 37.6-0.384 1.1-0.768 2.19-1.16 3.32-0.336 0.95-0.672 1.9-1.02 2.88-0.812 2.18-0.812 2.18-0.712 4.25 0.811 0.00239 1.62 0.00478 2.46 0.00724 19.8 0.0593 39.6 0.135 59.4 0.228 9.57 0.0448 19.1 0.0843 28.7 0.111 8.34 0.0231 16.7 0.0566 25 0.102 4.41 0.0238 8.83 0.0426 13.2 0.0489 4.17 0.00611 8.33 0.0263 12.5 0.0567 1.52 0.00869 3.04 0.0125 4.55 0.0107 19.2-0.0155 35.3 3.51 50.2 16.4 0.888 0.729 0.888 0.729 1.79 1.47 11.5 10.3 17.4 26.9 23.8 40.5 2.34 5 4.72 9.99 7.11 15 0.462 0.967 0.924 1.93 1.4 2.93 3.52 7.34 7.12 14.6 10.8 21.9 2.32 4.6 4.63 9.2 6.94 13.8 0.508 1.01 1.02 2.02 1.54 3.07 4.09 8.18 8.05 16.4 11.9 24.7 4.79 10.5 4.79 10.5 12.4 19.1 0.57 0.473 1.14 0.946 1.73 1.43 2.86 1.96 5.39 2.25 8.75 2.26 0.841 0.00302 1.68 0.00603 2.55 0.00914 0.925-0.00177 1.85-0.00354 2.8-0.00536 0.986 0.00205 1.97 0.00411 2.99 0.00622 3.34 0.0057 6.67 0.00421 10 0.00279 2.4 0.00258 4.8 0.00559 7.21 9e-3 5.93 0.00724 11.9 0.00977 17.8 0.0103 7.1 9.13e-4 14.2 0.00758 21.3 0.0143 17.2 0.0161 34.3 0.022 51.5 0.0267 8.12 0.00233 16.2 0.00594 24.4 0.0097 27.8 0.0128 55.6 0.0236 83.3 0.027 1.74 2.22e-4 3.49 4.43e-4 5.23 6.65e-4 1.75 2.21e-4 3.5 4.41e-4 5.25 6.61e-4 3.51 4.43e-4 7.02 8.9e-4 10.5 0.00134 1.3 1.64e-4 1.3 1.64e-4 2.64 3.31e-4 28.2 0.00363 56.4 0.0196 84.6 0.0429 29.8 0.0246 59.6 0.0383 89.4 0.0395 3.27 1.71e-4 6.54 3.87e-4 9.81 6.34e-4 1.21 8.37e-5 1.21 8.37e-5 2.44 1.69e-4 13 0.00115 25.9 0.0122 38.9 0.0267 13 0.0144 26.1 0.0176 39.1 0.00956 7.75-0.00446 15.5-5.7e-4 23.2 0.0152 5.78 0.0109 11.6 0.00613 17.3-0.00477 2.34-0.00197 4.69 0.00117 7.03 0.00984 3.18 0.011 6.35 0.00366 9.53-0.00839 0.916 0.0076 1.83 0.0152 2.78 0.023 6.78-0.0558 11.5-1.2 16.9-5.63 2.61-3.14 4.39-6.41 6.11-10.1 0.698-1.44 1.4-2.89 2.09-4.33 0.349-0.73 0.699-1.46 1.06-2.21 1.26-2.62 2.57-5.22 3.89-7.82 3.66-7.23 7.16-14.5 10.6-21.8 4.39-9.22 8.9-18.4 13.5-27.5 1.94-3.85 3.88-7.71 5.81-11.6 0.51-1.02 1.02-2.03 1.55-3.08 3.08-6.16 6.07-12.4 9-18.6 10.8-23 10.8-23 16.9-29 2.01-1.61 2.01-1.61 1.78-3.79 0.576-0.262 1.15-0.523 1.75-0.793 2.39-1.28 4.24-2.77 6.32-4.52 13.6-10.6 29.6-12.1 46.3-12.1 1.59-0.00904 3.18-0.0194 4.76-0.0309 4.27-0.0273 8.53-0.0368 12.8-0.0429 4.47-0.00945 8.95-0.0357 13.4-0.06 8.45-0.0435 16.9-0.0721 25.4-0.0953 9.63-0.0271 19.3-0.0711 28.9-0.116 19.8-0.0926 39.6-0.164 59.4-0.222-1.6-4.95-3.21-9.91-4.81-14.9-0.543-1.68-1.09-3.35-1.63-5.03-3.71-11.5-7.48-22.9-11.3-34.4-0.549-1.64-1.1-3.28-1.65-4.92-0.222-0.664-0.444-1.33-0.673-2.01-4.04-12.1-7.98-24.2-11.9-36.3-4.62-14.2-9.26-28.4-14-42.5-4.71-14.1-9.34-28.2-13.9-42.2-0.341-1.04-0.681-2.09-1.03-3.16-3.52-10.8-7.02-21.6-10.5-32.3-6.58-20.3-13.3-40.6-20-60.8-1.75-5.22-3.49-10.4-5.23-15.7-1.24-3.73-2.49-7.47-3.74-11.2-2.34-6.99-4.66-14-6.89-21-1.05-3.3-2.11-6.6-3.17-9.9-0.5-1.57-0.994-3.13-1.48-4.71-3.79-12.2-3.79-12.2-12-21.9-2.37-1.18-3.96-1.2-6.6-1.31-0.965-0.0413-1.93-0.0826-2.92-0.125-1.06-0.0387-2.12-0.0774-3.21-0.117-1.11-0.0421-2.23-0.0842-3.37-0.128-13-0.449-26-0.465-39-0.453-3.49 0.00259-6.97 1.7e-4 -10.5-0.00139-5.82-0.0018-11.6 5.27e-4 -17.5 0.00534-6.73 0.0055-13.5 0.00363-20.2-0.00183-5.82-0.00453-11.6-0.00518-17.4-0.00256-3.46 0.00156-6.91 0.00177-10.4-0.00154-3.83-0.00341-7.65 0.00131-11.5 0.0069-1.71-0.00304-1.71-0.00304-3.46-0.00613-1.04 0.00282-2.07 0.00564-3.14 0.00854-1.35 5.66e-4 -1.35 5.66e-4 -2.73 0.00114-2.21-0.0137-2.21-0.0137-4.16 1.13-0.543 1.88-0.543 1.88-0.824 4.18-0.138 0.895-0.275 1.79-0.417 2.71-0.147 0.984-0.295 1.97-0.446 2.98-4.56 28-13.2 54.5-25.3 80.1-0.314 0.672-0.628 1.34-0.952 2.04-27.8 59.1-77.2 107-136 135-1.33 0.633-2.66 1.27-3.98 1.92-20 9.69-55 26.7-77.3 20-5.8-2.51-9.24-7.22-11.6-12.9-1.94-6-1.57-11.2 0.844-17 3.73-7.17 8.61-10.2 16-13 4.07-1.21 8.19-2.23 12.3-3.25 11.7-3.04 22.7-6.81 33.7-11.8 0.935-0.418 1.87-0.836 2.83-1.27 12.6-5.72 24.7-11.9 36.2-19.7 0.601-0.406 1.2-0.811 1.82-1.23 8.88-6.03 17.1-12.7 25.2-19.8 0.897-0.785 1.79-1.57 2.72-2.38 47.9-42.5 78.3-105 82.1-169 3.34-65.9-18.4-132-62.8-181-2.99-3.29-6.03-6.53-9.09-9.76-0.785-0.828-1.57-1.66-2.38-2.51-5-5.14-10.3-9.76-16-14.2-1.18-0.926-2.35-1.86-3.52-2.79-10.6-8.41-21.4-15.8-33.1-22.5-0.674-0.391-1.35-0.783-2.04-1.19-80.4-46.2-188-40.5-263 14.2zm-381 9c-1.25 2.51-2.18 4.69-3.04 7.32-0.368 1.05-0.368 1.05-0.744 2.13-0.757 2.18-1.49 4.36-2.22 6.55-0.448 1.3-0.897 2.61-1.35 3.91-1.36 3.95-2.68 7.92-4 11.9-0.491 1.47-0.983 2.95-1.47 4.42-1.3 3.89-2.59 7.79-3.88 11.7-0.805 2.43-1.61 4.85-2.42 7.28-8.14 24.5-16.2 48.9-24.1 73.5-2.29 7.09-4.58 14.2-6.88 21.3-0.246 0.76-0.492 1.52-0.746 2.3-5.33 16.5-10.8 32.9-16.3 49.3-10.9 32.5-21.6 65.1-32.2 97.8-1.26 3.88-2.51 7.77-3.77 11.7-0.245 0.756-0.489 1.51-0.741 2.29-3.87 12-7.83 23.9-11.8 35.8-4.01 12-7.93 24-11.8 36-4.35 13.4-8.76 26.8-13.2 40.2-3.99 11.9-7.89 23.8-11.8 35.8-4.35 13.4-8.76 26.8-13.2 40.2-2.85 8.52-5.68 17-8.44 25.6-0.401 1.24-0.401 1.24-0.811 2.51-1.08 3.35-2.17 6.7-3.25 10.1-3.07 9.53-6.22 19-9.5 28.5-0.306 0.882-0.611 1.76-0.926 2.67-1.47 4.24-2.95 8.48-4.45 12.7-0.528 1.51-1.06 3.03-1.58 4.54-0.372 1.03-0.372 1.03-0.752 2.09-1.41 4-1.41 4-0.537 8.11 49-0.495 49-0.495 99-1 2.43-5.46 4.6-10.4 6.45-16 0.217-0.652 0.434-1.3 0.657-1.98 0.718-2.16 1.43-4.33 2.14-6.49 0.518-1.57 1.04-3.13 1.55-4.7 1.74-5.26 3.47-10.5 5.2-15.8 0.314-0.959 0.629-1.92 0.953-2.91 6.14-18.7 12.3-37.4 18.3-56.2 0.252-0.78 0.504-1.56 0.764-2.36 0.248-0.766 0.496-1.53 0.751-2.32 0.49-1.51 0.979-3.03 1.47-4.54 0.241-0.744 0.481-1.49 0.73-2.26 3.83-11.8 7.75-23.7 11.7-35.5 4.01-12 7.93-24 11.8-36 4.35-13.4 8.76-26.8 13.2-40.2 3.99-11.9 7.89-23.8 11.8-35.8 4.34-13.4 8.75-26.8 13.2-40.2 4.82-14.4 9.51-28.8 14.2-43.3 0.267-0.826 0.534-1.65 0.809-2.5 0.502-1.55 1-3.1 1.5-4.66 1.68-5.18 1.68-5.18 2.79-7.41 0.0924-1.34 0.124-2.69 0.123-4.04 0.00199-0.85 0.00398-1.7 0.00603-2.58-0.00437-1.41-0.00437-1.41-0.00883-2.85 8.54e-4 -0.994 0.00171-1.99 0.00259-3.01 0.00166-3.35-0.00387-6.7-0.00932-10.1-2.82e-4 -2.39-1.24e-4 -4.79 4.43e-4 -7.18 2.28e-4 -5.17-0.00262-10.3-0.00824-15.5-0.00812-7.47-0.0107-14.9-0.012-22.4-0.00219-12.1-0.00885-24.2-0.0183-36.4-0.00918-11.8-0.0163-23.5-0.0205-35.3-2.63e-4 -0.725-5.25e-4 -1.45-7.96e-4 -2.2-0.00131-3.64-0.00257-7.28-0.00381-10.9-0.0104-30.2-0.0281-60.4-0.0503-90.6-1.41-0.0187-2.83-0.032-4.24-0.043-0.787-0.00798-1.57-0.016-2.38-0.0242-6.8 0.192-11.6 2.05-16.4 7.07zm70-7c-0.732 5.12-1.14 9.82-1.12 14.9-8.54e-4 0.77-0.00171 1.54-0.00259 2.33-0.00164 2.56 0.00384 5.13 0.00932 7.69 2.82e-4 1.84 1.23e-4 3.69-4.43e-4 5.53-2.87e-4 4.99 0.00559 9.99 0.0126 15 0.00626 5.22 0.00684 10.4 0.00803 15.7 0.00311 9.88 0.0113 19.8 0.0213 29.7 0.0112 11.3 0.0167 22.5 0.0217 33.8 0.0104 23.1 0.028 46.3 0.0503 69.4 3.84 1.31 7.33 0.89 11.3 0.575 7.78-0.561 15.5-0.745 23.3-0.781 1.38-0.00962 2.76-0.0196 4.14-0.03 3.69-0.0266 7.39-0.0479 11.1-0.068 3.88-0.0221 7.76-0.0494 11.6-0.0761 7.32-0.0496 14.6-0.0946 22-0.138 8.35-0.0497 16.7-0.104 25-0.16 17.1-0.113 34.3-0.22 51.4-0.323 0.108-1.04 0.216-2.09 0.327-3.16 0.409-3.95 0.824-7.89 1.24-11.8 0.178-1.69 0.355-3.39 0.529-5.08 3.48-33.7 12-66.4 26.9-96.9 0.617-1.31 1.23-2.62 1.85-3.93 12-25.1 28.2-48 46.9-68.5 1.42-1.49 1.42-1.49 1.21-3.56h-238zm670 0c1.28 3.36 2.23 5.55 4.94 7.94 5.68 5.46 10.3 11.8 15.1 18.1 0.481 0.637 0.963 1.27 1.46 1.93 32.5 43.4 49.8 94.9 55.7 148 0.182 1.62 0.363 3.25 0.546 4.87 0.44 3.92 0.874 7.84 1.31 11.8 0.692 0.00423 1.38 0.00846 2.1 0.0128 16.9 0.104 33.9 0.213 50.8 0.327 8.19 0.055 16.4 0.108 24.6 0.158 7.15 0.0433 14.3 0.0896 21.4 0.14 3.78 0.0263 7.55 0.0511 11.3 0.0722 3.57 0.02 7.15 0.0443 10.7 0.0714 1.9 0.0134 3.79 0.0226 5.69 0.0316 10.8 0.0889 21.6 0.622 32.4 1.19 0.0233-25.3 0.041-50.6 0.0518-75.8 0.00516-11.7 0.0122-23.5 0.0236-35.2 0.00994-10.2 0.0164-20.4 0.0186-30.7 0.00131-5.42 0.0044-10.8 0.0116-16.3 0.00676-5.09 0.00889-10.2 0.00738-15.3 2.76e-4 -1.87 0.00228-3.75 0.0061-5.62 0.00493-2.55 0.00379-5.1 0.00105-7.64 0.00291-0.752 0.00583-1.5 0.00883-2.28 0.292-3.39 0.292-3.39-1.13-6.21-3.05-0.098-6.07-0.13-9.12-0.12-1.45-0.00128-1.45-0.00128-2.94-0.00259-3.27-0.00166-6.54 0.00387-9.82 0.00932-2.34 2.82e-4 -4.67 1.24e-4 -7.01-4.43e-4 -6.36-2.88e-4 -12.7 0.00561-19.1 0.0126-5.97 0.0056-11.9 0.00662-17.9 0.00765-11.8 0.00219-23.6 0.00885-35.5 0.0183-11.5 0.00917-23 0.0163-34.5 0.0205-1.06 3.94e-4 -1.06 3.94e-4 -2.14 7.96e-4 -3.55 0.0013-7.1 0.00257-10.6 0.00381-29.5 0.0104-58.9 0.0281-88.4 0.0503z" fill="#d6d6d6"/>
<path transform="translate(449,145)" d="m0 0c1.22 0.34 2.45 0.681 3.71 1.03 27.4 8.37 50 27.6 63.6 52.8 13.4 26.1 15.1 55.9 6.58 83.8-4.32 12-10.4 23.8-18.9 33.4-0.799 0.941-1.6 1.88-2.42 2.85-17.7 20.5-42.2 32.8-69.1 35.9-29.7 2.1-57.1-5.71-80.1-24.9-19.6-17.1-31.2-37.6-36.4-62.8-0.29-1.35-0.29-1.35-0.586-2.72-1.85-14.6-1.16-30 2.59-44.3 0.255-1 0.51-2.01 0.773-3.04 4.29-14.6 12.6-27.3 22.2-39 0.729-0.975 0.729-0.975 1.47-1.97 8.14-10.6 20.8-18 32.5-24 1.09-0.556 2.17-1.11 3.29-1.68 21.4-10.1 48-11.8 70.7-5.32zm-72 62c-0.562 0.54-1.12 1.08-1.7 1.64-10.7 11.2-14.8 27.1-14.7 42.2 0.506 17.1 8.2 31.5 20.4 43.3 12.3 10.5 27.1 15.7 43.3 15.3 17.1-1.62 31.5-8.72 43.5-21.2 10.1-12.5 15.8-29 14.2-45.1-2.04-16.6-9.49-31-22-42-26.3-19.5-59.9-17.4-83 6z" fill="#d6d6d6"/>
<path transform="translate(1010 29.8)" d="m0 0c23.4-0.549 46 6.03 63.4 22.2 2.06 1.97 4.07 3.97 6.06 6 0.688 0.69 1.38 1.38 2.09 2.09 16.2 17.3 23 40.6 22.2 63.8-1.23 23.4-10.8 43.5-27.3 60.1-0.684 0.696-1.37 1.39-2.07 2.11-14.6 14-35.9 21.8-55.9 22.9-0.679 0.0412-1.36 0.0825-2.06 0.125-22.5 0.68-44.1-7.33-60.9-22.1-0.822-0.632-1.64-1.26-2.49-1.91-7.46-6.21-12.9-14.6-17.5-23.1-0.534-0.911-0.534-0.911-1.08-1.84-10.7-19.4-12.7-43.5-6.73-64.6 7.05-23.3 21.4-42.6 42.7-54.7 12.4-6.65 25.5-10.5 39.6-11.1zm-30.8 63.7c-7.54 10.6-8.84 21.8-7.76 34.5 2.44 11.6 9.49 21.2 19 28 11.6 6.62 22.8 8.5 35.9 5.28 12.4-4.08 21.2-11.9 27.4-23.3 5.17-11.3 4.97-23.3 1.01-34.9-4.44-10.4-12.8-19.6-23.3-24.1-19.8-7.28-38.8-1.38-52.2 14.5z" fill="#d6d6d6"/>
<path transform="translate(612 .805)" d="m0 0c10.8 5.57 19.2 15.6 27.6 24.2 4.14-3.37 7.93-6.93 11.6-10.8 13.9-14.3 13.9-14.3 24.3-15 6.92 0.383 11.9 3.28 17.1 7.81 4.62 5.62 6.46 11 6.32 18.3-1.6 13.5-15.5 24.5-25.3 32.7 3.39 4.17 6.98 7.99 10.8 11.7 14.1 13.8 14.1 13.8 14.6 23.8-0.089 6.77-2.54 12.3-7.09 17.3-5.97 5.38-11.3 6.59-19.3 6.41-8.77-0.883-15.1-7.11-21-13.3-0.697-1.32-1.37-2.65-2-4-1.32-0.685-2.66-1.35-4-2-1.7-1.63-3.38-3.29-5-5-4.04 1.56-6.37 4.43-9.12 7.62-13.9 15.6-13.9 15.6-23.7 16.7-7.83 0.0305-12.8-0.39-18.9-5.74-5.59-6.37-7.77-11.2-7.55-19.8 1.42-13.1 15.4-23 24.3-31.8-1.6-4.06-4.52-6.68-7.62-9.62-1.85-1.75-3.62-3.53-5.38-5.38v-2c-0.835-0.278-0.835-0.278-1.69-0.562-4.81-2.99-7.53-8.18-9.31-13.4-1.16-7.92 0.264-14.5 5-21 7.2-6.89 15.5-10.6 25.4-7.2z" fill="#d6d6d6"/>
<path transform="translate(1137 230)" d="m0 0c1.2 0.0831 1.2 0.0831 2.42 0.168 9.38 2.14 14.9 8.17 21.3 14.9 0.918 0.936 1.84 1.87 2.78 2.84 2.25 2.3 4.49 4.6 6.72 6.91 5.4-4.48 10.3-9.27 15.2-14.3 5.72-5.84 11.6-10.6 20.2-10.7 6.74 0.423 12.6 1.86 17.4 6.9 5.53 7.08 7.18 13.2 6.24 22.1-1.94 8.29-10 15.3-16 21h-2v2c-1.53 1.51-1.53 1.51-3.5 3.12-0.65 0.539-1.3 1.08-1.97 1.63-0.505 0.41-1.01 0.82-1.53 1.24 3.39 4.17 6.98 7.99 10.8 11.7 14.2 13.9 14.2 13.9 14.5 24.4-0.0961 6.63-1.61 11-6.18 15.8-6.4 5.88-11.4 7.5-20.1 7.34-6.93-0.73-12.1-4.62-17-9.32v-2l-4-2v-2c-1.48-0.495-1.48-0.495-3-1-1.37-1.63-2.71-3.3-4-5-1.38-1.88-1.38-1.88-3-3-3.29 0.424-4.8 1.47-6.95 3.94-0.519 0.583-1.04 1.17-1.57 1.77-0.53 0.612-1.06 1.22-1.61 1.85-1.92 2.2-3.86 4.33-5.88 6.44h-2v2c-2.08 1.69-2.08 1.69-4.81 3.56-0.893 0.62-1.79 1.24-2.71 1.88-5.46 3.43-11.2 3.11-17.5 2.56-6.7-1.77-11.1-6.46-15-12-2.98-6.09-2.57-12.3-1.19-18.8 3.15-7.47 10.4-13.5 16.1-19 0.905-0.874 1.81-1.75 2.74-2.65 0.829-0.773 1.66-1.55 2.51-2.34 2.23-2.2 2.23-2.2 1.8-6.16h-2v-2c-0.557-0.227-1.11-0.454-1.69-0.688-2.97-1.69-5.03-3.78-7.31-6.31v-2c-0.99-0.33-1.98-0.66-3-1-1.97-2.07-1.97-2.07-4.06-4.69-0.692-0.849-1.38-1.7-2.1-2.57-3.78-5.62-4.56-11.1-3.84-17.7 1.45-6.22 4.39-11.8 9.96-15.2 4.98-2.58 9.12-4.07 14.8-3.59z" fill="#d6d6d6"/>
<path transform="translate(868 789)" d="m0 0c5.62 5.17 9.52 11.1 9.84 18.8-0.0892 6.79-2.58 12.2-7.02 17.3-5.49 5.1-11.6 6.63-19 6.42-6.24-0.832-11.1-4.1-16.1-7.75-14.1-10.2-32.2-13.7-49.3-11.3-13 2.29-24.4 7.9-35.1 15.5-5.41 3.56-12.6 2.65-18.8 2.16-5.65-1.62-9.8-6.23-13-11-3.08-6.27-2.99-13.6-1.49-20.3 5.33-12.9 24.5-21.3 36.6-26.6 37.8-14.2 81.6-8.31 113 16.6z" fill="#d6d6d6"/>
<path transform="translate(174 1445)" d="m0 0c0.884-0.00511 1.77-0.0102 2.68-0.0155 2.91-0.0138 5.81-0.0129 8.72-0.0106 2.03-0.00389 4.06-0.00823 6.09-0.013 4.25-0.00745 8.5-0.00718 12.8-0.00191 5.43 0.00579 10.9-0.0111 16.3-0.0343 4.19-0.0148 8.39-0.0156 12.6-0.0125 2-5.11e-4 4-0.00571 6.01-0.0158 2.81-0.0124 5.61-0.00554 8.42 0.00601 0.817-0.00764 1.63-0.0153 2.48-0.0232 7.35 0.0664 15 1.57 20.5 6.77 4.97 5.99 7.19 12.3 6.76 20-1.14 7.22-4.81 11.5-10.2 16.2-5.58 3.67-11.1 3.74-17.6 3.72-1.39 0.00767-1.39 0.00767-2.81 0.0155-3.05 0.0139-6.1 0.0129-9.15 0.0106-2.13 0.00389-4.25 0.00822-6.38 0.013-4.45 0.00745-8.91 0.00718-13.4 0.00191-5.7-0.0058-11.4 0.0111-17.1 0.0343-4.39 0.0147-8.78 0.0156-13.2 0.0125-2.1 5.13e-4 -4.2 0.00574-6.3 0.0158-2.94 0.0124-5.88 0.00557-8.82-0.00601-0.863 0.00764-1.73 0.0153-2.62 0.0232-8.24-0.0715-13.9-2.52-19.9-8.4-4.13-5.86-5.57-10.9-5-18 1.93-7.99 6.04-13.6 13-18 5.47-1.92 10.3-2.29 16.1-2.27z" fill="#d6d6d6"/>
<path transform="translate(173 1372)" d="m0 0c0.893-0.00496 1.79-0.00993 2.71-0.015 2.96-0.0146 5.92-0.0214 8.88-0.0269 2.06-0.00575 4.12-0.0115 6.18-0.0173 4.32-0.0105 8.65-0.0164 13-0.0198 5.52-0.00547 11-0.0295 16.6-0.058 4.26-0.0187 8.51-0.0238 12.8-0.0254 2.04-0.00302 4.07-0.011 6.11-0.0242 2.86-0.0172 5.71-0.0152 8.57-0.00869 0.833-0.00921 1.67-0.0184 2.52-0.0279 8.36 0.0589 15.4 2.08 21.6 7.84 5.04 5.43 5.76 10.9 5.64 18-0.529 6.44-4 10.9-7.9 15.7-6.05 4.72-13.5 5.24-20.9 5.22-0.912 0.00847-1.82 0.0169-2.76 0.0257-2.99 0.0232-5.97 0.0244-8.96 0.0232-2.09 0.00711-4.19 0.0148-6.28 0.0231-4.38 0.0134-8.75 0.015-13.1 0.00916-5.59-0.0059-11.2 0.0247-16.8 0.0651-4.32 0.0259-8.64 0.0287-13 0.0251-2.06 0.00169-4.12 0.0113-6.18 0.0291-21 0.162-21 0.162-28.4-5.62-2.44-2.44-2.44-2.44-4-5-0.557-0.887-1.11-1.77-1.69-2.69-2.29-5.79-3.22-11.6-1.12-17.6 0.573-1.26 1.18-2.52 1.81-3.75 0.536-1.05 1.07-2.1 1.62-3.19 6.12-7.25 14-8.96 23.1-8.97z" fill="#d6d6d6"/>
<path transform="translate(953,265)" d="m0 0c5.1 4.31 8.26 9.8 9.42 16.4 0.974 12.8-8.92 25.4-15.4 35.9-0.739 1.2-1.48 2.4-2.22 3.61-1.14 1.85-2.28 3.71-3.42 5.56-2.27 3.69-4.52 7.39-6.73 11.1-1.06 1.79-2.13 3.58-3.21 5.36-1.33 2.22-2.65 4.44-3.96 6.67-5.03 8.31-10.5 15.4-20.2 18.1-7.02 1.14-13.5-0.603-19.3-4.63-5.34-4.54-8.07-10.1-9-17 0.28-11.8 8.83-22.5 14.8-32.2 1.24-2.03 2.48-4.05 3.72-6.08 0.596-0.973 1.19-1.95 1.81-2.95 2.16-3.54 4.29-7.1 6.41-10.7 1.41-2.36 2.83-4.71 4.25-7.06 0.626-1.04 0.626-1.04 1.27-2.1 1.32-2.18 2.65-4.35 3.98-6.53 0.401-0.664 0.801-1.33 1.21-2.01 3.94-6.37 8.65-12 15.8-14.6 7.79-1.72 13.8-0.697 20.7 3.19z" fill="#d6d6d6"/>
<path transform="translate(672,264)" d="m0 0c6.47 5.45 10.4 13.3 14.6 20.6 2.87 4.9 5.81 9.76 8.74 14.6 1.29 2.16 2.59 4.32 3.88 6.48 2.43 4.05 4.87 8.08 7.34 12.1 0.546 0.896 1.09 1.79 1.65 2.71 1.01 1.66 2.03 3.32 3.05 4.97 4.1 6.75 7.75 13.4 6.77 21.5-1.96 7.6-5.3 12.8-12 17-6.19 3.06-11.7 3.5-18.4 1.89-10.1-3.47-14.4-12.2-19.6-20.9-1.15-1.9-2.3-3.8-3.45-5.7-3.88-6.42-7.72-12.9-11.6-19.3-0.621-1.04-1.24-2.08-1.88-3.15-1.77-2.97-3.54-5.94-5.31-8.91-0.528-0.885-1.06-1.77-1.6-2.68-10.3-17.4-10.3-17.4-9.21-26.3 2.16-6.74 5.31-12.5 11.5-16.2 8.59-4.3 17.4-4 25.5 1.25z" fill="#d6d6d6"/>
<path transform="translate(809 223)" d="m0 0c5.92 3.12 9.02 7.12 11.8 13 1.08 4.1 1.13 8.01 1.15 12.2 0.00336 0.71 0.00672 1.42 0.0102 2.15 0.00947 2.34 0.0115 4.67 0.0125 7.01 0.00322 1.63 0.00658 3.27 0.0101 4.9 0.00598 3.42 0.00784 6.84 0.00725 10.3-1.01e-4 4.37 0.0135 8.74 0.0308 13.1 0.0112 3.37 0.0131 6.74 0.0126 10.1 0.00117 1.61 0.00557 3.22 0.0133 4.83 0.00988 2.26 0.00689 4.52 8.95e-4 6.78 0.00143 1.28 0.00285 2.56 0.00432 3.88-0.535 8.09-2.92 14.6-8.25 20.7-5.71 4.58-11.9 5.48-19 5-7.04-1.36-11.6-4.32-16-10-5.9-10-4.14-23.7-4.02-34.9 0.00696-0.739 0.0139-1.48 0.0211-2.24 0.0371-3.9 0.0809-7.8 0.131-11.7 0.0496-4 0.0756-8 0.0964-12 0.0205-3.11 0.0583-6.21 0.101-9.32 0.0172-1.47 0.028-2.95 0.0319-4.42 0.0601-17.4 0.0601-17.4 6.32-24.2 7.93-7.47 17.5-9.41 27.5-5.14z" fill="#d6d6d6"/>
<path transform="translate(943 682)" d="m0 0c5.5 4.48 8.31 8.43 9.2 15.5 0.45 8.16-1.08 13.7-6.38 20-5.88 4.9-11.9 6.49-19.4 6.31-5.86-0.706-10.2-2.95-14.4-7-4.06-6.15-7.13-11.8-6.19-19.3 1.54-6.76 3.9-12.1 9.74-16.2 9.05-5.43 18.7-5.31 27.4 0.73z" fill="#d6d6d6"/>
<path transform="translate(686 682)" d="m0 0c5.85 6.18 8.48 12.9 8.25 21.4-1.02 6.6-4.44 12.3-9.81 16.4-6.39 3.79-13.1 4.79-20.4 3.14-7.14-2.4-11-7.16-14.8-13.5-2.02-6.05-2.12-13.4 0.5-19.3 3.18-5.4 7.89-9.44 13.5-12.1 8.41-1.58 15.4-0.284 22.8 4.06z" fill="#d6d6d6"/>
</svg>
