<svg width="202" height="202" viewBox="0 0 202 202" fill="none" xmlns="http://www.w3.org/2000/svg">
<g clip-path="url(#clip0_4_1105)">
<path opacity="0.1" d="M100.567 201.134C156.109 201.134 201.134 156.109 201.134 100.567C201.134 45.0255 156.109 0 100.567 0C45.0251 0 -0.000427246 45.0255 -0.000427246 100.567C-0.000427246 156.109 45.0251 201.134 100.567 201.134Z" fill="#AA468F"/>
<path d="M57.0567 70.4014C57.4203 69.9937 57.8606 69.6617 58.3525 69.4242C58.8444 69.1867 59.3783 69.0485 59.9236 69.0173C60.469 68.9861 61.0151 69.0627 61.5309 69.2426C62.0467 69.4225 62.5219 69.7023 62.9296 70.0659L76.2042 81.9056L70.6667 88.1143L57.392 76.2745C56.9843 75.9109 56.6523 75.4706 56.4148 74.9787C56.1773 74.4867 56.039 73.9528 56.0079 73.4074C55.9768 72.862 56.0534 72.3159 56.2333 71.8001C56.4133 71.2843 56.693 70.809 57.0567 70.4014Z" fill="white"/>
<path d="M70.6991 88.6933L57.1189 76.5804C56.671 76.1809 56.3061 75.6971 56.0452 75.1566C55.7842 74.6161 55.6323 74.0295 55.598 73.4303C55.5638 72.8311 55.6479 72.231 55.8456 71.6643C56.0432 71.0976 56.3506 70.5754 56.7501 70.1274C57.1496 69.6795 57.6334 69.3147 58.1739 69.0537C58.7144 68.7928 59.301 68.6408 59.9002 68.6066C60.4994 68.5723 61.0995 68.6564 61.6662 68.8541C62.2329 69.0518 62.7551 69.3591 63.2031 69.7586L76.7848 81.8718L70.6991 88.6933ZM60.1647 69.4204C60.092 69.4204 60.019 69.4225 59.9459 69.4266C59.2057 69.469 58.4947 69.7301 57.9027 70.1766C57.3108 70.6232 56.8646 71.2353 56.6206 71.9354C56.3765 72.6355 56.3455 73.3923 56.5315 74.1101C56.7176 74.8278 57.1122 75.4743 57.6657 75.9678L70.6338 87.5342L75.6244 81.9389L62.6563 70.3725C61.9722 69.7584 61.0851 69.4193 60.1659 69.4204H60.1647Z" fill="#292A2E"/>
<path d="M130.465 88.1138L124.927 81.9053L138.202 70.0655C139.025 69.3312 140.107 68.9541 141.208 69.017C142.309 69.0799 143.341 69.5778 144.075 70.4011C144.809 71.2244 145.186 72.3057 145.124 73.407C145.061 74.5084 144.563 75.5397 143.739 76.274L130.465 88.1138Z" fill="white"/>
<path d="M130.433 88.6936L124.349 81.8721L137.93 69.7589C138.835 68.9521 140.023 68.5377 141.233 68.6068C142.443 68.676 143.576 69.2231 144.383 70.1277C145.19 71.0323 145.604 72.2204 145.535 73.4306C145.466 74.6407 144.919 75.7739 144.014 76.5807L130.433 88.6936ZM125.509 81.9386L130.499 87.5338L143.467 75.968C143.835 75.6403 144.134 75.2435 144.348 74.8002C144.562 74.3568 144.687 73.8757 144.715 73.3842C144.743 72.8927 144.674 72.4005 144.512 71.9356C144.35 71.4708 144.097 71.0425 143.77 70.6751C143.442 70.3077 143.045 70.0084 142.602 69.7944C142.159 69.5804 141.677 69.4558 141.186 69.4277C140.694 69.3996 140.202 69.4686 139.737 69.6308C139.273 69.7929 138.844 70.0451 138.477 70.3727L125.509 81.9386Z" fill="#292A2E"/>
<path d="M135.994 95.8152C138.955 108.928 143.009 117.364 140.99 122.209C139.929 124.756 137.751 126.891 134.146 126.891C128.526 126.891 128.526 120.264 122.906 120.264C117.286 120.264 117.287 126.891 111.668 126.891C106.048 126.891 106.049 120.264 100.43 120.264C94.811 120.264 94.8107 126.891 89.1915 126.891C83.5723 126.891 83.5726 120.264 77.9537 120.264C72.3349 120.264 72.3355 126.891 66.7172 126.891C63.3814 126.891 61.4956 124.927 60.2998 122.656C57.4258 117.202 64.1239 105.2 66.7172 94.6156C69.5826 82.9202 69.3412 68.3527 69.7256 59.5668C70.4672 42.6235 83.4728 28.8589 100.434 28.8589C117.394 28.8589 129.906 42.6523 131.141 59.5668C131.807 68.6854 133.284 83.8116 135.994 95.8152Z" fill="white"/>
<path d="M134.146 127.306C131.144 127.306 129.653 125.547 128.21 123.844C126.829 122.215 125.524 120.677 122.906 120.677C120.288 120.677 118.985 122.215 117.603 123.844C116.16 125.545 114.669 127.306 111.667 127.306C108.666 127.306 107.175 125.547 105.733 123.844C104.351 122.215 103.047 120.677 100.43 120.677C97.8124 120.677 96.5087 122.215 95.1266 123.844C93.6841 125.545 92.1929 127.306 89.1913 127.306C86.1896 127.306 84.6978 125.547 83.2581 123.846C81.8769 122.217 80.5726 120.679 77.9551 120.679C75.3375 120.679 74.0341 122.217 72.6526 123.846C71.2108 125.547 69.7196 127.308 66.7185 127.308C63.7334 127.308 61.5144 125.85 59.9344 122.851C57.9308 119.049 60.3372 112.325 62.8855 105.207C64.1509 101.672 65.4586 98.0159 66.3163 94.5199C68.6079 85.1663 68.898 74.1758 69.1308 65.3442C69.1857 63.2554 69.2377 61.282 69.3146 59.5513C69.6822 51.1645 73.0168 43.3588 78.7056 37.5714C81.533 34.674 84.9132 32.3735 88.6459 30.8063C92.3787 29.239 96.388 28.437 100.436 28.4476C104.459 28.4381 108.441 29.2426 112.144 30.8128C115.847 32.3829 119.194 34.6862 121.984 37.584C127.541 43.3058 130.941 51.1035 131.558 59.5394C132.151 67.6734 133.57 83.1902 136.401 95.7268C137.361 99.9788 138.436 103.735 139.384 107.048C141.363 113.968 142.794 118.968 141.375 122.371C140.604 124.214 138.644 127.306 134.146 127.306ZM122.906 119.85C125.908 119.85 127.399 121.609 128.842 123.311C130.223 124.94 131.528 126.478 134.146 126.478C138.163 126.478 139.919 123.705 140.608 122.051C141.915 118.915 140.516 114.033 138.584 107.275C137.634 103.95 136.555 100.183 135.59 95.9081C132.747 83.3183 131.324 67.7552 130.728 59.5985C129.465 42.3109 116.441 29.2744 100.433 29.2744C84.19 29.2744 70.883 42.5887 70.1377 59.5862C70.0624 61.3096 70.0103 63.2792 69.9539 65.3644C69.7324 73.7674 69.4289 85.2753 67.1162 94.7156C66.2496 98.253 64.9333 101.93 63.6608 105.485C61.1759 112.427 58.8289 118.984 60.6629 122.465C62.086 125.165 64.0652 126.478 66.7139 126.478C69.3312 126.478 70.6349 124.939 72.0164 123.31C73.4583 121.609 74.9494 119.849 77.9505 119.849C80.9515 119.849 82.4433 121.608 83.8852 123.31C85.2664 124.939 86.5707 126.478 89.1882 126.478C91.8057 126.478 93.1107 124.939 94.4916 123.31C95.934 121.609 97.4252 119.849 100.427 119.849C103.428 119.849 104.919 121.608 106.361 123.31C107.742 124.939 109.046 126.478 111.664 126.478C114.282 126.478 115.587 124.939 116.968 123.31C118.413 121.61 119.904 119.85 122.906 119.85Z" fill="#292A2E"/>
<path d="M88.8943 61.5482C90.7742 61.5482 92.2982 60.0242 92.2982 58.1443C92.2982 56.2644 90.7742 54.7405 88.8943 54.7405C87.0144 54.7405 85.4905 56.2644 85.4905 58.1443C85.4905 60.0242 87.0144 61.5482 88.8943 61.5482Z" fill="#292A2E"/>
<path d="M112.235 61.5482C114.115 61.5482 115.639 60.0242 115.639 58.1443C115.639 56.2644 114.115 54.7405 112.235 54.7405C110.355 54.7405 108.831 56.2644 108.831 58.1443C108.831 60.0242 110.355 61.5482 112.235 61.5482Z" fill="#292A2E"/>
<path d="M106.661 67.3311C106.858 67.3306 107.052 67.3739 107.229 67.4579C107.407 67.5418 107.564 67.6643 107.688 67.8165C107.812 67.9686 107.901 68.1465 107.948 68.3373C107.995 68.5281 107.999 68.7269 107.959 68.9193C107.229 72.3321 104.196 74.4773 100.566 74.4773C96.9348 74.4773 93.9019 72.333 93.1722 68.9193C93.1326 68.7269 93.1364 68.528 93.1833 68.3372C93.2302 68.1464 93.3191 67.9685 93.4434 67.8163C93.5678 67.6642 93.7245 67.5417 93.9021 67.4578C94.0798 67.3738 94.2739 67.3305 94.4704 67.3311H106.661Z" fill="white"/>
<path d="M100.565 74.8915C96.6536 74.8915 93.5199 72.5264 92.767 69.0058C92.7133 68.7552 92.7167 68.4957 92.7767 68.2465C92.8367 67.9974 92.9519 67.7648 93.1137 67.5661C93.2768 67.3634 93.4834 67.2 93.7182 67.0878C93.953 66.9757 94.2099 66.9177 94.4701 66.9182H106.662C106.922 66.9178 107.179 66.9758 107.414 67.0879C107.648 67.2001 107.855 67.3635 108.018 67.5661C108.18 67.7649 108.295 67.9974 108.355 68.2466C108.415 68.4957 108.418 68.7552 108.365 69.0058C107.611 72.5264 104.476 74.8915 100.565 74.8915ZM94.4695 67.7453C94.3328 67.7452 94.1978 67.7757 94.0745 67.8347C93.9512 67.8936 93.8427 67.9795 93.757 68.0859C93.6729 68.189 93.6131 68.3096 93.5819 68.4388C93.5506 68.5681 93.5488 68.7027 93.5766 68.8327C94.2453 71.9612 97.0536 74.0632 100.565 74.0632C104.076 74.0632 106.884 71.9612 107.553 68.8327C107.581 68.7026 107.579 68.568 107.548 68.4387C107.516 68.3095 107.456 68.1889 107.372 68.0859C107.286 67.9795 107.178 67.8936 107.055 67.8346C106.931 67.7757 106.797 67.7451 106.66 67.7453H94.4695Z" fill="#292A2E"/>
<path d="M180.577 161.504C162.203 185.593 133.201 201.136 100.568 201.136C67.9357 201.136 38.933 185.593 20.5598 161.504C41.5337 153.613 69.6541 148.788 100.568 148.788C131.482 148.788 159.601 153.613 180.577 161.504Z" fill="#AA468F"/>
<path d="M189.017 52.6706L137.405 52.45C137.405 43.8301 142.26 42.1331 147.421 40.7332C152.583 39.3333 154.905 29.8587 163.874 29.3196C169.171 29.001 171.949 30.3642 174.249 32.1194C174.252 32.1225 174.252 32.1255 174.255 32.1255C180.019 38.327 184.978 45.2297 189.017 52.6706Z" fill="white"/>
<path d="M41.7918 116.72L1.32044 116.894C0.629144 112.669 0.209641 108.403 0.0645142 104.124C8.92949 102.868 8.02277 95.8222 18.6093 96.4624C26.4634 96.9342 28.5035 105.232 33.0218 106.458C37.54 107.683 41.7918 109.173 41.7918 116.72Z" fill="white"/>
</g>
<defs>
<clipPath id="clip0_4_1105">
<rect width="201.134" height="201.136" fill="white"/>
</clipPath>
</defs>
</svg>
