<?xml version="1.0" encoding="UTF-8"?>
<!-- Generator: visioncortex VTracer 0.6.3 -->
<svg version="1.1" xmlns="http://www.w3.org/2000/svg" width="1280" height="1280">
<path d="M0 0 C1.48 -0 2.96 -0 4.43 -0 C8.46 -0.01 12.49 -0.01 16.51 -0 C20.9 -0 25.3 -0 29.69 -0.01 C37.38 -0.01 45.06 -0.01 52.75 -0.01 C64.18 -0 75.62 -0 87.05 -0.01 C107.47 -0.01 127.89 -0.01 148.31 -0.01 C166.18 -0.01 184.05 -0.01 201.92 -0.01 C203.1 -0.01 204.29 -0.01 205.51 -0.01 C210.32 -0.01 215.14 -0.01 219.95 -0.01 C265.1 -0.01 310.25 -0.01 355.4 -0 C395.5 0 435.6 0 475.7 -0 C520.77 -0.01 565.84 -0.01 610.91 -0.01 C615.71 -0.01 620.52 -0.01 625.32 -0.01 C627.1 -0.01 627.1 -0.01 628.91 -0.01 C646.77 -0.01 664.63 -0.01 682.48 -0.01 C702.79 -0.01 723.1 -0.01 743.4 -0.01 C754.76 -0 766.12 -0 777.49 -0.01 C785.08 -0.01 792.67 -0.01 800.26 -0 C804.59 -0 808.91 -0 813.23 -0 C817.18 -0.01 821.12 -0.01 825.06 -0 C826.47 -0 827.88 -0 829.28 -0 C866.19 -0.07 866.19 -0.07 875.55 9.13 C887.36 23.46 882.7 53.36 882.69 70.49 C882.69 74.04 882.69 77.6 882.69 81.15 C882.7 87.36 882.7 93.58 882.7 99.79 C882.7 109.03 882.7 118.27 882.71 127.51 C882.72 144.97 882.72 162.44 882.72 179.9 C882.72 193.39 882.72 206.89 882.73 220.38 C882.73 224.27 882.73 228.16 882.73 232.05 C882.73 233.02 882.73 233.98 882.73 234.98 C882.74 262.17 882.74 289.36 882.74 316.55 C882.74 317.57 882.74 318.6 882.74 319.65 C882.74 324.84 882.74 330.03 882.74 335.22 C882.74 336.77 882.74 336.77 882.74 338.35 C882.74 340.43 882.74 342.52 882.74 344.6 C882.74 377.02 882.75 409.44 882.76 441.87 C882.77 478.33 882.78 514.79 882.78 551.26 C882.78 555.15 882.78 559.04 882.78 562.94 C882.78 564.37 882.78 564.37 882.78 565.84 C882.78 581.22 882.79 596.61 882.8 611.99 C882.81 627.46 882.81 642.94 882.8 658.41 C882.8 667.59 882.8 676.77 882.81 685.95 C882.81 692.09 882.81 698.24 882.81 704.39 C882.8 707.88 882.8 711.37 882.81 714.87 C882.83 727.87 882.7 740.85 881.85 753.83 C881.8 754.83 881.75 755.83 881.69 756.85 C881.07 764.84 878.75 772.66 872.55 778.13 C860.22 786.35 841.5 784.28 827.23 784.25 C825.75 784.25 824.28 784.25 822.8 784.26 C818.77 784.26 814.74 784.26 810.72 784.25 C806.33 784.25 801.93 784.26 797.54 784.26 C789.85 784.26 782.16 784.26 774.47 784.26 C763.04 784.25 751.61 784.26 740.17 784.26 C719.75 784.26 699.33 784.26 678.9 784.26 C661.03 784.26 643.16 784.26 625.29 784.26 C623.51 784.26 623.51 784.26 621.69 784.26 C616.88 784.26 612.06 784.26 607.25 784.26 C562.09 784.26 516.94 784.26 471.78 784.26 C431.67 784.25 391.57 784.25 351.46 784.26 C306.39 784.26 261.31 784.26 216.24 784.26 C211.43 784.26 206.63 784.26 201.82 784.26 C200.64 784.26 199.45 784.26 198.23 784.26 C180.37 784.26 162.51 784.26 144.65 784.26 C124.34 784.26 104.03 784.26 83.72 784.26 C72.36 784.26 61 784.26 49.63 784.26 C42.04 784.26 34.44 784.26 26.85 784.26 C22.53 784.25 18.2 784.25 13.88 784.26 C9.94 784.26 5.99 784.26 2.05 784.25 C0.64 784.25 -0.77 784.25 -2.18 784.26 C-39.08 784.32 -39.08 784.32 -48.45 775.13 C-60.25 760.8 -55.59 730.9 -55.58 713.77 C-55.58 710.22 -55.58 706.66 -55.59 703.11 C-55.59 696.9 -55.59 690.69 -55.59 684.48 C-55.59 675.24 -55.6 666 -55.6 656.77 C-55.61 639.3 -55.61 621.84 -55.61 604.38 C-55.61 590.89 -55.62 577.4 -55.62 563.91 C-55.62 560.02 -55.62 556.13 -55.62 552.24 C-55.62 551.28 -55.62 550.31 -55.62 549.31 C-55.63 522.13 -55.63 494.94 -55.63 467.75 C-55.63 466.73 -55.63 465.71 -55.63 464.65 C-55.63 459.46 -55.63 454.27 -55.63 449.08 C-55.63 448.05 -55.63 447.02 -55.63 445.96 C-55.63 443.87 -55.63 441.79 -55.63 439.71 C-55.63 407.29 -55.64 374.88 -55.65 342.46 C-55.67 306 -55.68 269.55 -55.68 233.09 C-55.68 229.19 -55.68 225.3 -55.68 221.41 C-55.68 220.45 -55.68 219.49 -55.68 218.51 C-55.68 203.13 -55.68 187.75 -55.69 172.37 C-55.7 156.9 -55.7 141.42 -55.69 125.95 C-55.69 116.78 -55.69 107.6 -55.7 98.43 C-55.71 92.28 -55.71 86.13 -55.7 79.98 C-55.69 76.49 -55.69 73 -55.7 69.51 C-55.73 56.25 -55.56 43.03 -54.68 29.79 C-54.62 28.73 -54.56 27.67 -54.5 26.57 C-53.94 19.35 -52.45 13.93 -47.88 8.14 C-40.89 2.19 -33.55 1.03 -24.56 0.56 C-23.81 0.52 -23.07 0.48 -22.3 0.43 C-14.87 0.05 -7.44 -0.01 0 0 Z M13.36 68.93 C10.6 73.81 10.86 78.33 10.92 83.85 C10.92 84.99 10.92 86.12 10.92 87.3 C10.92 89.7 10.93 92.1 10.96 94.5 C10.99 98.18 10.98 101.86 10.96 105.53 C10.96 107.87 10.97 110.2 10.99 112.54 C10.98 114.19 10.98 114.19 10.97 115.87 C10.99 116.9 11 117.92 11.02 118.98 C11.03 119.88 11.03 120.78 11.04 121.7 C11.73 124.97 12.9 126.15 15.55 128.13 C18.06 128.73 18.06 128.73 20.81 128.64 C21.86 128.66 22.9 128.67 23.98 128.68 C25.11 128.67 26.24 128.67 27.4 128.66 C28.56 128.66 29.72 128.66 30.92 128.67 C33.37 128.67 35.82 128.66 38.28 128.65 C42.04 128.63 45.8 128.65 49.56 128.67 C51.94 128.67 54.33 128.66 56.71 128.66 C58.4 128.67 58.4 128.67 60.12 128.68 C61.69 128.66 61.69 128.66 63.3 128.64 C64.22 128.64 65.14 128.64 66.09 128.63 C69.39 127.95 70.56 126.81 72.55 124.13 C73.15 121.62 73.15 121.62 73.07 118.87 C73.08 117.82 73.1 116.77 73.11 115.69 C73.1 114.57 73.09 113.44 73.08 112.28 C73.09 111.12 73.09 109.96 73.1 108.76 C73.1 106.31 73.09 103.85 73.07 101.4 C73.05 97.64 73.07 93.88 73.1 90.12 C73.1 87.74 73.09 85.35 73.08 82.97 C73.09 81.84 73.1 80.72 73.11 79.56 C73.1 78.51 73.08 77.46 73.07 76.38 C73.07 75.46 73.06 74.54 73.06 73.59 C72.38 70.29 71.23 69.12 68.55 67.13 C66.1 66.52 66.1 66.52 63.4 66.59 C62.38 66.58 61.36 66.56 60.3 66.54 C59.2 66.55 58.1 66.55 56.96 66.56 C55.83 66.55 54.69 66.55 53.52 66.54 C51.12 66.53 48.71 66.54 46.31 66.55 C42.63 66.56 38.96 66.53 35.28 66.49 C32.95 66.49 30.61 66.49 28.28 66.5 C26.63 66.48 26.63 66.48 24.95 66.46 C20.38 66.51 17.38 66.66 13.36 68.93 Z M139.55 72.13 C138.82 74.68 138.82 74.68 138.92 77.4 C138.91 78.43 138.9 79.46 138.88 80.52 C138.9 81.62 138.91 82.72 138.92 83.85 C138.92 84.99 138.92 86.12 138.92 87.3 C138.92 89.7 138.93 92.1 138.96 94.5 C138.99 98.18 138.98 101.86 138.96 105.53 C138.96 107.87 138.97 110.2 138.99 112.54 C138.98 114.19 138.98 114.19 138.97 115.87 C138.99 116.9 139 117.92 139.02 118.98 C139.03 119.88 139.03 120.78 139.04 121.7 C139.75 125.05 140.75 126.17 143.55 128.13 C146.24 128.52 148.51 128.67 151.2 128.64 C152.34 128.65 152.34 128.65 153.51 128.66 C156.04 128.68 158.56 128.67 161.08 128.66 C162.84 128.66 164.6 128.66 166.35 128.67 C170.03 128.67 173.71 128.67 177.39 128.65 C182.1 128.62 186.82 128.64 191.53 128.66 C195.16 128.68 198.78 128.67 202.41 128.66 C204.15 128.66 205.88 128.66 207.62 128.67 C210.05 128.68 212.48 128.67 214.91 128.64 C215.99 128.66 215.99 128.66 217.09 128.67 C220.37 128.61 222.28 128.32 225 126.42 C226.86 123.67 227.06 122.18 227.07 118.87 C227.08 117.82 227.1 116.77 227.11 115.69 C227.1 114.57 227.09 113.44 227.08 112.28 C227.09 111.12 227.09 109.96 227.1 108.76 C227.1 106.31 227.09 103.85 227.07 101.4 C227.05 97.64 227.07 93.88 227.1 90.12 C227.1 87.74 227.09 85.35 227.08 82.97 C227.09 81.84 227.1 80.72 227.11 79.56 C227.1 78.51 227.08 77.46 227.07 76.38 C227.07 75.46 227.06 74.54 227.06 73.59 C226.37 70.21 225.38 69.1 222.55 67.13 C219.9 66.73 217.67 66.57 215.02 66.59 C214.26 66.58 213.51 66.58 212.74 66.57 C210.25 66.54 207.76 66.55 205.28 66.56 C203.54 66.55 201.81 66.55 200.08 66.54 C196.46 66.53 192.83 66.53 189.2 66.55 C184.56 66.57 179.91 66.54 175.27 66.51 C171.69 66.49 168.12 66.49 164.54 66.5 C162.83 66.5 161.12 66.49 159.4 66.47 C157.01 66.46 154.61 66.47 152.22 66.49 C151.16 66.48 151.16 66.48 150.08 66.46 C144.9 66.56 142.6 67.99 139.55 72.13 Z M295.11 68.83 C293.24 71.58 293.05 73.07 293.04 76.38 C293.02 77.43 293.01 78.48 293 79.56 C293.01 80.68 293.01 81.81 293.02 82.97 C293.02 84.13 293.01 85.29 293.01 86.49 C293.01 88.94 293.01 91.4 293.03 93.85 C293.05 97.61 293.03 101.37 293.01 105.13 C293.01 107.51 293.01 109.9 293.02 112.28 C293.01 113.41 293.01 114.53 293 115.69 C293.01 116.74 293.02 117.79 293.04 118.87 C293.04 119.79 293.04 120.71 293.05 121.66 C293.74 125.04 294.73 126.15 297.55 128.13 C300.2 128.53 302.44 128.68 305.09 128.66 C306.22 128.67 306.22 128.67 307.37 128.69 C309.86 128.71 312.34 128.7 314.83 128.69 C316.56 128.7 318.29 128.7 320.02 128.71 C323.65 128.72 327.28 128.72 330.91 128.7 C335.55 128.69 340.19 128.71 344.84 128.74 C348.41 128.77 351.99 128.76 355.56 128.76 C357.28 128.76 358.99 128.76 360.7 128.78 C363.1 128.79 365.49 128.78 367.89 128.76 C368.59 128.77 369.3 128.78 370.03 128.79 C373.76 128.72 375.48 128.18 378.49 125.91 C380.72 122.9 381.18 121.64 381.2 117.96 C381.22 116.95 381.23 115.95 381.25 114.91 C381.23 113.3 381.23 113.3 381.22 111.66 C381.22 110.54 381.23 109.43 381.23 108.28 C381.24 105.93 381.23 103.58 381.21 101.23 C381.18 97.64 381.2 94.05 381.24 90.45 C381.23 88.16 381.23 85.88 381.22 83.59 C381.23 82.52 381.24 81.45 381.25 80.34 C381.23 79.34 381.22 78.33 381.2 77.3 C381.2 76.42 381.19 75.54 381.19 74.63 C380.24 70.89 378.61 69.43 375.55 67.13 C372.79 66.63 370.64 66.45 367.89 66.49 C366.76 66.48 366.76 66.48 365.6 66.47 C363.11 66.46 360.63 66.48 358.14 66.5 C356.41 66.5 354.68 66.49 352.95 66.49 C349.32 66.49 345.7 66.5 342.07 66.53 C337.42 66.56 332.78 66.56 328.13 66.54 C324.56 66.53 320.98 66.54 317.41 66.55 C315.69 66.56 313.98 66.56 312.27 66.55 C309.87 66.54 307.48 66.57 305.09 66.59 C304.03 66.58 304.03 66.58 302.95 66.57 C299.69 66.64 297.81 66.95 295.11 68.83 Z M446.55 72.13 C445.81 74.63 445.81 74.63 445.91 77.3 C445.89 78.3 445.87 79.3 445.86 80.34 C445.87 81.41 445.88 82.49 445.89 83.59 C445.88 84.71 445.88 85.82 445.87 86.97 C445.87 89.32 445.88 91.67 445.9 94.02 C445.93 97.61 445.9 101.21 445.87 104.8 C445.87 107.09 445.88 109.37 445.89 111.66 C445.88 112.73 445.87 113.81 445.86 114.91 C445.87 115.92 445.89 116.92 445.91 117.96 C445.91 119.28 445.91 119.28 445.92 120.62 C446.87 124.36 448.5 125.82 451.55 128.13 C454.32 128.62 456.46 128.8 459.22 128.76 C460.35 128.77 460.35 128.77 461.51 128.78 C463.99 128.8 466.48 128.78 468.96 128.75 C470.7 128.76 472.43 128.76 474.16 128.76 C477.79 128.76 481.41 128.75 485.04 128.72 C489.68 128.69 494.33 128.69 498.97 128.71 C502.55 128.72 506.12 128.72 509.7 128.7 C511.41 128.69 513.12 128.7 514.84 128.7 C517.23 128.71 519.62 128.69 522.02 128.66 C522.73 128.67 523.43 128.67 524.16 128.68 C527.42 128.62 529.3 128.31 531.99 126.42 C533.86 123.67 534.06 122.18 534.07 118.87 C534.08 117.82 534.1 116.77 534.11 115.69 C534.1 114.57 534.09 113.44 534.08 112.28 C534.09 111.12 534.09 109.96 534.1 108.76 C534.1 106.31 534.09 103.85 534.07 101.4 C534.05 97.64 534.07 93.88 534.1 90.12 C534.1 87.74 534.09 85.35 534.08 82.97 C534.09 81.84 534.1 80.72 534.11 79.56 C534.1 78.51 534.08 77.46 534.07 76.38 C534.07 75.46 534.06 74.54 534.06 73.59 C533.37 70.21 532.38 69.1 529.55 67.13 C526.9 66.73 524.67 66.57 522.02 66.59 C521.26 66.58 520.51 66.58 519.74 66.57 C517.25 66.54 514.76 66.55 512.28 66.56 C510.54 66.55 508.81 66.55 507.08 66.54 C503.46 66.53 499.83 66.53 496.2 66.55 C491.56 66.57 486.91 66.54 482.27 66.51 C478.69 66.49 475.12 66.49 471.54 66.5 C469.83 66.5 468.12 66.49 466.4 66.47 C464.01 66.46 461.61 66.47 459.22 66.49 C458.16 66.48 458.16 66.48 457.08 66.46 C451.9 66.56 449.61 68 446.55 72.13 Z M602.11 68.83 C600.24 71.58 600.05 73.07 600.04 76.38 C600.02 77.43 600.01 78.48 600 79.56 C600.01 80.68 600.01 81.81 600.02 82.97 C600.02 84.13 600.01 85.29 600.01 86.49 C600.01 88.94 600.01 91.4 600.03 93.85 C600.05 97.61 600.03 101.37 600.01 105.13 C600.01 107.51 600.01 109.9 600.02 112.28 C600.01 113.41 600.01 114.53 600 115.69 C600.01 116.74 600.02 117.79 600.04 118.87 C600.04 119.79 600.04 120.71 600.05 121.66 C600.74 125.04 601.72 126.15 604.55 128.13 C607.24 128.52 609.51 128.67 612.2 128.64 C613.34 128.65 613.34 128.65 614.51 128.66 C617.04 128.68 619.56 128.67 622.08 128.66 C623.84 128.66 625.6 128.66 627.35 128.67 C631.03 128.67 634.71 128.67 638.39 128.65 C643.1 128.62 647.82 128.64 652.53 128.66 C656.16 128.68 659.78 128.67 663.41 128.66 C665.15 128.66 666.88 128.66 668.62 128.67 C671.05 128.68 673.48 128.67 675.91 128.64 C676.99 128.66 676.99 128.66 678.09 128.67 C681.37 128.61 683.28 128.32 686 126.42 C687.84 123.7 688.06 122.24 688.09 118.98 C688.1 117.95 688.12 116.93 688.13 115.87 C688.13 114.22 688.13 114.22 688.12 112.54 C688.13 111.4 688.13 110.26 688.14 109.09 C688.15 106.69 688.14 104.29 688.13 101.88 C688.12 98.21 688.15 94.53 688.19 90.85 C688.19 88.52 688.19 86.18 688.18 83.85 C688.2 82.75 688.21 81.65 688.22 80.52 C688.21 79.49 688.2 78.46 688.18 77.4 C688.18 76.5 688.18 75.6 688.18 74.67 C687.25 70.9 685.64 69.44 682.55 67.13 C679.79 66.63 677.64 66.45 674.89 66.49 C673.76 66.48 673.76 66.48 672.6 66.47 C670.11 66.46 667.63 66.48 665.14 66.5 C663.41 66.5 661.68 66.49 659.95 66.49 C656.32 66.49 652.7 66.5 649.07 66.53 C644.42 66.56 639.78 66.56 635.13 66.54 C631.56 66.53 627.98 66.54 624.41 66.55 C622.69 66.56 620.98 66.56 619.27 66.55 C616.87 66.54 614.48 66.57 612.09 66.59 C611.03 66.58 611.03 66.58 609.95 66.57 C606.69 66.64 604.81 66.95 602.11 68.83 Z M754.55 71.13 C753.95 73.63 753.95 73.63 754.04 76.38 C754.02 77.43 754.01 78.48 754 79.56 C754.01 80.68 754.01 81.81 754.02 82.97 C754.02 84.13 754.01 85.29 754.01 86.49 C754.01 88.94 754.01 91.4 754.03 93.85 C754.05 97.61 754.03 101.37 754.01 105.13 C754.01 107.51 754.01 109.9 754.02 112.28 C754.01 113.41 754.01 114.53 754 115.69 C754.01 116.74 754.02 117.79 754.04 118.87 C754.04 119.79 754.04 120.71 754.05 121.66 C754.73 124.96 755.87 126.13 758.55 128.13 C761.06 128.73 761.06 128.73 763.81 128.64 C764.86 128.66 765.9 128.67 766.98 128.68 C768.11 128.67 769.24 128.67 770.4 128.66 C771.56 128.66 772.72 128.66 773.92 128.67 C776.37 128.67 778.82 128.66 781.28 128.65 C785.04 128.63 788.8 128.65 792.56 128.67 C794.94 128.67 797.33 128.66 799.71 128.66 C801.4 128.67 801.4 128.67 803.12 128.68 C804.69 128.66 804.69 128.66 806.3 128.64 C807.22 128.64 808.14 128.64 809.09 128.63 C812.38 127.95 813.56 126.81 815.55 124.13 C816.16 121.67 816.16 121.67 816.09 118.98 C816.11 117.44 816.11 117.44 816.13 115.87 C816.13 114.77 816.12 113.67 816.12 112.54 C816.13 111.4 816.13 110.26 816.14 109.09 C816.15 106.69 816.14 104.29 816.13 101.88 C816.12 98.21 816.15 94.53 816.19 90.85 C816.19 88.52 816.19 86.18 816.18 83.85 C816.2 82.75 816.21 81.65 816.22 80.52 C816.17 75.95 816.02 72.95 813.75 68.93 C808.87 66.17 804.35 66.43 798.83 66.5 C797.69 66.49 796.56 66.49 795.38 66.49 C792.98 66.49 790.58 66.5 788.18 66.53 C784.5 66.56 780.82 66.55 777.14 66.53 C774.81 66.54 772.48 66.55 770.14 66.56 C769.04 66.55 767.94 66.55 766.81 66.54 C765.27 66.57 765.27 66.57 763.7 66.59 C762.8 66.6 761.9 66.6 760.97 66.61 C757.71 67.3 756.53 68.47 754.55 71.13 Z M13.28 197.25 C11.21 200.7 10.93 202.72 10.92 206.72 C10.92 207.38 10.91 208.03 10.9 208.7 C10.88 210.89 10.9 213.08 10.92 215.27 C10.91 216.86 10.9 218.44 10.89 220.03 C10.87 224.38 10.88 228.74 10.9 233.1 C10.91 237.8 10.89 242.49 10.88 247.19 C10.86 256.4 10.86 265.6 10.88 274.81 C10.89 282.28 10.89 289.76 10.88 297.24 C10.88 298.31 10.88 299.37 10.88 300.47 C10.88 302.63 10.88 304.79 10.88 306.95 C10.86 327.22 10.88 347.49 10.91 367.76 C10.93 385.16 10.92 402.56 10.9 419.96 C10.87 440.16 10.86 460.35 10.88 480.55 C10.88 482.7 10.88 484.86 10.88 487.01 C10.88 488.07 10.89 489.13 10.89 490.22 C10.89 497.69 10.88 505.16 10.87 512.63 C10.86 521.74 10.86 530.84 10.89 539.95 C10.9 544.59 10.91 549.24 10.89 553.88 C10.87 558.14 10.88 562.39 10.91 566.64 C10.92 568.18 10.91 569.72 10.9 571.26 C10.89 573.35 10.9 575.44 10.92 577.53 C10.92 578.69 10.93 579.85 10.93 581.05 C11.4 584.22 11.4 584.22 13.28 587 C18.45 590.36 23.51 589.81 29.55 589.76 C30.91 589.76 32.27 589.77 33.63 589.78 C37.38 589.8 41.13 589.78 44.88 589.77 C48.95 589.76 53.02 589.77 57.09 589.78 C64.23 589.8 71.38 589.8 78.52 589.79 C89.14 589.77 99.76 589.78 110.38 589.8 C129.34 589.82 148.31 589.82 167.28 589.8 C183.87 589.79 200.47 589.79 217.07 589.79 C218.17 589.8 219.26 589.8 220.4 589.8 C224.86 589.8 229.33 589.8 233.79 589.8 C275.69 589.82 317.58 589.8 359.48 589.78 C396.73 589.75 433.97 589.75 471.22 589.78 C513.04 589.8 554.86 589.82 596.67 589.8 C601.13 589.8 605.59 589.8 610.04 589.79 C611.14 589.79 612.24 589.79 613.37 589.79 C629.95 589.79 646.54 589.79 663.13 589.81 C681.99 589.82 700.85 589.82 719.7 589.79 C730.26 589.78 740.82 589.78 751.39 589.79 C758.43 589.81 765.48 589.8 772.52 589.78 C776.54 589.76 780.56 589.76 784.59 589.78 C788.24 589.79 791.89 589.79 795.55 589.76 C797.49 589.76 799.43 589.77 801.37 589.79 C807.97 589.76 807.97 589.76 813.83 587 C815.9 583.55 816.18 581.54 816.18 577.53 C816.19 576.87 816.2 576.22 816.2 575.55 C816.22 573.36 816.21 571.17 816.19 568.98 C816.19 567.4 816.2 565.81 816.21 564.23 C816.23 559.87 816.22 555.51 816.21 551.15 C816.2 546.46 816.21 541.76 816.23 537.06 C816.25 527.86 816.24 518.65 816.23 509.45 C816.22 501.97 816.22 494.49 816.22 487.01 C816.22 485.94 816.22 484.88 816.22 483.79 C816.23 481.62 816.23 479.46 816.23 477.3 C816.24 457.03 816.23 436.76 816.2 416.49 C816.18 399.09 816.18 381.69 816.21 364.29 C816.23 344.09 816.24 323.9 816.23 303.7 C816.23 301.55 816.22 299.4 816.22 297.24 C816.22 296.18 816.22 295.12 816.22 294.03 C816.22 286.56 816.22 279.09 816.23 271.62 C816.25 262.51 816.24 253.41 816.22 244.31 C816.21 239.66 816.2 235.01 816.22 230.37 C816.23 226.12 816.22 221.86 816.2 217.61 C816.19 216.07 816.19 214.53 816.21 212.99 C816.22 210.9 816.21 208.81 816.18 206.72 C816.18 205.56 816.18 204.4 816.18 203.2 C815.71 200.03 815.71 200.03 813.83 197.25 C808.65 193.89 803.59 194.44 797.55 194.5 C796.19 194.49 794.83 194.48 793.48 194.47 C789.73 194.46 785.98 194.47 782.23 194.48 C778.16 194.5 774.09 194.48 770.01 194.47 C762.87 194.45 755.73 194.45 748.59 194.46 C737.97 194.48 727.35 194.47 716.73 194.46 C697.76 194.43 678.8 194.43 659.83 194.45 C643.23 194.46 626.64 194.46 610.04 194.46 C608.39 194.46 608.39 194.46 606.71 194.46 C602.24 194.45 597.78 194.45 593.32 194.45 C551.42 194.44 509.52 194.45 467.63 194.48 C430.38 194.5 393.14 194.5 355.89 194.47 C314.07 194.45 272.25 194.44 230.43 194.45 C225.98 194.45 221.52 194.46 217.07 194.46 C215.97 194.46 214.87 194.46 213.74 194.46 C197.15 194.46 180.56 194.46 163.97 194.44 C145.12 194.43 126.26 194.43 107.4 194.46 C96.84 194.48 86.28 194.48 75.72 194.46 C68.67 194.45 61.63 194.45 54.58 194.48 C50.56 194.49 46.54 194.49 42.52 194.47 C38.87 194.46 35.21 194.46 31.56 194.49 C29.62 194.5 27.68 194.48 25.74 194.46 C19.13 194.49 19.13 194.49 13.28 197.25 Z M11.55 660.13 C10.95 662.58 10.95 662.58 11.02 665.27 C11 666.3 10.99 667.32 10.97 668.38 C10.98 669.48 10.98 670.58 10.99 671.72 C10.98 672.85 10.97 673.99 10.97 675.16 C10.96 677.56 10.96 679.97 10.98 682.37 C10.99 686.05 10.96 689.72 10.92 693.4 C10.92 695.73 10.92 698.07 10.92 700.4 C10.91 701.5 10.9 702.6 10.88 703.73 C10.94 708.3 11.09 711.3 13.36 715.32 C18.24 718.08 22.76 717.82 28.28 717.75 C29.41 717.76 30.55 717.76 31.72 717.76 C34.12 717.76 36.53 717.75 38.93 717.72 C42.61 717.69 46.28 717.7 49.96 717.72 C52.3 717.71 54.63 717.7 56.96 717.69 C58.06 717.7 59.17 717.7 60.3 717.71 C61.32 717.69 62.35 717.68 63.4 717.66 C64.3 717.65 65.2 717.65 66.13 717.64 C69.4 716.95 70.57 715.78 72.55 713.13 C73.15 710.62 73.15 710.62 73.07 707.87 C73.08 706.82 73.1 705.77 73.11 704.69 C73.1 703.57 73.09 702.44 73.08 701.28 C73.09 700.12 73.09 698.96 73.1 697.76 C73.1 695.31 73.09 692.85 73.07 690.4 C73.05 686.64 73.07 682.88 73.1 679.12 C73.1 676.74 73.09 674.35 73.08 671.97 C73.09 670.84 73.1 669.72 73.11 668.56 C73.1 667.51 73.08 666.46 73.07 665.38 C73.07 664.46 73.06 663.54 73.06 662.59 C72.38 659.29 71.24 658.12 68.55 656.13 C66.05 655.53 66.05 655.53 63.3 655.61 C62.25 655.6 61.2 655.58 60.12 655.57 C59 655.58 57.87 655.59 56.71 655.59 C55.55 655.59 54.39 655.59 53.19 655.58 C50.74 655.58 48.28 655.59 45.83 655.6 C42.07 655.63 38.31 655.6 34.55 655.58 C32.17 655.58 29.78 655.59 27.4 655.59 C25.71 655.58 25.71 655.58 23.98 655.57 C22.94 655.58 21.89 655.6 20.81 655.61 C19.89 655.61 18.97 655.61 18.02 655.62 C14.72 656.3 13.55 657.45 11.55 660.13 Z M141.11 657.84 C139.26 660.55 139.04 662.01 139.02 665.27 C139 666.3 138.99 667.32 138.97 668.38 C138.98 669.48 138.98 670.58 138.99 671.72 C138.98 672.85 138.97 673.99 138.97 675.16 C138.96 677.56 138.96 679.97 138.98 682.37 C138.99 686.05 138.96 689.72 138.92 693.4 C138.92 695.73 138.92 698.07 138.92 700.4 C138.91 701.5 138.9 702.6 138.88 703.73 C138.9 704.76 138.91 705.79 138.92 706.85 C138.92 707.75 138.92 708.65 138.92 709.58 C139.86 713.35 141.47 714.81 144.55 717.13 C147.32 717.62 149.46 717.8 152.22 717.76 C153.35 717.77 153.35 717.77 154.51 717.78 C156.99 717.8 159.48 717.78 161.96 717.75 C163.7 717.76 165.43 717.76 167.16 717.76 C170.79 717.76 174.41 717.75 178.04 717.72 C182.68 717.69 187.33 717.69 191.97 717.71 C195.55 717.72 199.12 717.72 202.7 717.7 C204.41 717.69 206.12 717.7 207.84 717.7 C210.23 717.71 212.62 717.69 215.02 717.66 C215.73 717.67 216.43 717.67 217.16 717.68 C220.42 717.62 222.3 717.31 224.99 715.42 C226.86 712.67 227.06 711.18 227.07 707.87 C227.08 706.82 227.1 705.77 227.11 704.69 C227.1 703.57 227.09 702.44 227.08 701.28 C227.09 700.12 227.09 698.96 227.1 697.76 C227.1 695.31 227.09 692.85 227.07 690.4 C227.05 686.64 227.07 682.88 227.1 679.12 C227.1 676.74 227.09 674.35 227.08 671.97 C227.09 670.84 227.1 669.72 227.11 668.56 C227.1 667.51 227.08 666.46 227.07 665.38 C227.07 664.46 227.06 663.54 227.06 662.59 C226.36 659.21 225.38 658.1 222.55 656.13 C219.87 655.73 217.59 655.58 214.91 655.61 C213.76 655.6 213.76 655.6 212.59 655.59 C210.07 655.57 207.55 655.58 205.02 655.59 C203.27 655.59 201.51 655.59 199.75 655.58 C196.08 655.58 192.4 655.59 188.72 655.6 C184 655.63 179.29 655.61 174.58 655.59 C170.95 655.58 167.32 655.58 163.7 655.59 C161.96 655.59 160.22 655.59 158.48 655.58 C156.05 655.57 153.63 655.59 151.2 655.61 C150.48 655.6 149.76 655.59 149.02 655.58 C145.73 655.64 143.83 655.93 141.11 657.84 Z M295.11 657.83 C293.24 660.58 293.05 662.07 293.04 665.38 C293.02 666.43 293.01 667.48 293 668.56 C293.01 669.68 293.01 670.81 293.02 671.97 C293.02 673.13 293.01 674.29 293.01 675.49 C293.01 677.94 293.01 680.4 293.03 682.85 C293.05 686.61 293.03 690.37 293.01 694.13 C293.01 696.51 293.01 698.9 293.02 701.28 C293.01 702.41 293.01 703.53 293 704.69 C293.01 705.74 293.02 706.79 293.04 707.87 C293.04 708.79 293.04 709.71 293.05 710.66 C293.74 714.04 294.73 715.15 297.55 717.13 C300.2 717.53 302.44 717.68 305.09 717.66 C306.22 717.67 306.22 717.67 307.37 717.69 C309.86 717.71 312.34 717.7 314.83 717.69 C316.56 717.7 318.29 717.7 320.02 717.71 C323.65 717.72 327.28 717.72 330.91 717.7 C335.55 717.69 340.19 717.71 344.84 717.74 C348.41 717.77 351.99 717.76 355.56 717.76 C357.28 717.76 358.99 717.76 360.7 717.78 C363.1 717.79 365.49 717.78 367.89 717.76 C368.59 717.77 369.3 717.78 370.03 717.79 C373.76 717.72 375.48 717.18 378.49 714.91 C380.72 711.9 381.18 710.64 381.2 706.96 C381.22 705.95 381.23 704.95 381.25 703.91 C381.23 702.3 381.23 702.3 381.22 700.66 C381.22 699.54 381.23 698.43 381.23 697.28 C381.24 694.93 381.23 692.58 381.21 690.23 C381.18 686.64 381.2 683.05 381.24 679.45 C381.23 677.16 381.23 674.88 381.22 672.59 C381.23 671.52 381.24 670.45 381.25 669.34 C381.23 668.34 381.22 667.33 381.2 666.3 C381.2 665.42 381.19 664.54 381.19 663.63 C380.24 659.89 378.61 658.43 375.55 656.13 C372.79 655.63 370.64 655.45 367.89 655.49 C366.76 655.48 366.76 655.48 365.6 655.47 C363.11 655.46 360.63 655.48 358.14 655.5 C356.41 655.5 354.68 655.49 352.95 655.49 C349.32 655.49 345.7 655.5 342.07 655.53 C337.42 655.56 332.78 655.56 328.13 655.54 C324.56 655.53 320.98 655.54 317.41 655.55 C315.69 655.56 313.98 655.56 312.27 655.55 C309.87 655.54 307.48 655.57 305.09 655.59 C304.03 655.58 304.03 655.58 302.95 655.57 C299.69 655.64 297.81 655.95 295.11 657.83 Z M446.55 661.13 C445.81 663.63 445.81 663.63 445.91 666.3 C445.89 667.3 445.87 668.3 445.86 669.34 C445.87 670.41 445.88 671.49 445.89 672.59 C445.88 673.71 445.88 674.82 445.87 675.97 C445.87 678.32 445.88 680.67 445.9 683.02 C445.93 686.61 445.9 690.21 445.87 693.8 C445.87 696.09 445.88 698.37 445.89 700.66 C445.88 701.73 445.87 702.81 445.86 703.91 C445.87 704.92 445.89 705.92 445.91 706.96 C445.91 708.28 445.91 708.28 445.92 709.62 C446.87 713.36 448.5 714.82 451.55 717.13 C454.32 717.62 456.46 717.8 459.22 717.76 C460.35 717.77 460.35 717.77 461.51 717.78 C463.99 717.8 466.48 717.78 468.96 717.75 C470.7 717.76 472.43 717.76 474.16 717.76 C477.79 717.76 481.41 717.75 485.04 717.72 C489.68 717.69 494.33 717.69 498.97 717.71 C502.55 717.72 506.12 717.72 509.7 717.7 C511.41 717.69 513.12 717.7 514.84 717.7 C517.23 717.71 519.62 717.69 522.02 717.66 C522.73 717.67 523.43 717.67 524.16 717.68 C527.42 717.62 529.3 717.31 531.99 715.42 C533.86 712.67 534.06 711.18 534.07 707.87 C534.08 706.82 534.1 705.77 534.11 704.69 C534.1 703.57 534.09 702.44 534.08 701.28 C534.09 700.12 534.09 698.96 534.1 697.76 C534.1 695.31 534.09 692.85 534.07 690.4 C534.05 686.64 534.07 682.88 534.1 679.12 C534.1 676.74 534.09 674.35 534.08 671.97 C534.09 670.84 534.1 669.72 534.11 668.56 C534.1 667.51 534.08 666.46 534.07 665.38 C534.07 664.46 534.06 663.54 534.06 662.59 C533.37 659.21 532.38 658.1 529.55 656.13 C526.9 655.73 524.67 655.57 522.02 655.59 C521.26 655.58 520.51 655.58 519.74 655.57 C517.25 655.54 514.76 655.55 512.28 655.56 C510.54 655.55 508.81 655.55 507.08 655.54 C503.46 655.53 499.83 655.53 496.2 655.55 C491.56 655.57 486.91 655.54 482.27 655.51 C478.69 655.49 475.12 655.49 471.54 655.5 C469.83 655.5 468.12 655.49 466.4 655.47 C464.01 655.46 461.61 655.47 459.22 655.49 C458.16 655.48 458.16 655.48 457.08 655.46 C451.9 655.56 449.61 657 446.55 661.13 Z M602.11 657.83 C600.24 660.58 600.05 662.08 600.04 665.38 C600.02 666.43 600.01 667.48 600 668.56 C600.01 669.68 600.01 670.81 600.02 671.97 C600.02 673.13 600.01 674.29 600.01 675.49 C600.01 677.94 600.01 680.4 600.03 682.85 C600.05 686.61 600.03 690.37 600.01 694.13 C600.01 696.51 600.01 698.9 600.02 701.28 C600.01 702.41 600.01 703.53 600 704.69 C600.01 705.74 600.02 706.79 600.04 707.87 C600.04 708.79 600.04 709.71 600.05 710.66 C600.74 714.04 601.73 715.15 604.55 717.13 C607.2 717.53 609.44 717.68 612.09 717.66 C613.22 717.67 613.22 717.67 614.37 717.69 C616.86 717.71 619.34 717.7 621.83 717.69 C623.56 717.7 625.29 717.7 627.02 717.71 C630.65 717.72 634.28 717.72 637.91 717.7 C642.55 717.69 647.19 717.71 651.84 717.74 C655.41 717.77 658.99 717.76 662.56 717.76 C664.28 717.76 665.99 717.76 667.7 717.78 C670.1 717.79 672.49 717.78 674.89 717.76 C675.59 717.77 676.3 717.78 677.03 717.79 C680.76 717.72 682.48 717.18 685.49 714.92 C687.75 711.86 688.18 710.58 688.18 706.85 C688.2 705.31 688.2 705.31 688.22 703.73 C688.21 702.63 688.2 701.54 688.18 700.4 C688.18 699.27 688.19 698.13 688.19 696.96 C688.19 694.55 688.18 692.15 688.15 689.75 C688.12 686.07 688.13 682.4 688.15 678.72 C688.14 676.38 688.13 674.05 688.12 671.72 C688.12 670.61 688.13 669.51 688.13 668.38 C688.12 667.35 688.1 666.33 688.09 665.27 C688.08 664.37 688.07 663.47 688.07 662.55 C687.36 659.2 686.35 658.09 683.55 656.13 C680.87 655.73 678.59 655.58 675.91 655.61 C674.76 655.6 674.76 655.6 673.59 655.59 C671.07 655.57 668.55 655.58 666.02 655.59 C664.27 655.59 662.51 655.59 660.75 655.58 C657.08 655.58 653.4 655.59 649.72 655.6 C645 655.63 640.29 655.61 635.58 655.59 C631.95 655.58 628.32 655.58 624.7 655.59 C622.96 655.59 621.22 655.59 619.48 655.58 C617.05 655.57 614.63 655.59 612.2 655.61 C611.48 655.6 610.76 655.59 610.02 655.58 C606.74 655.64 604.83 655.93 602.11 657.83 Z M754.55 660.13 C753.95 662.63 753.95 662.63 754.04 665.38 C754.02 666.43 754.01 667.48 754 668.56 C754.01 669.68 754.01 670.81 754.02 671.97 C754.02 673.13 754.01 674.29 754.01 675.49 C754.01 677.94 754.01 680.4 754.03 682.85 C754.05 686.61 754.03 690.37 754.01 694.13 C754.01 696.51 754.01 698.9 754.02 701.28 C754.01 702.41 754.01 703.53 754 704.69 C754.01 705.74 754.02 706.79 754.04 707.87 C754.04 708.79 754.04 709.71 754.05 710.66 C754.72 713.96 755.87 715.13 758.55 717.13 C761.01 717.73 761.01 717.73 763.7 717.66 C765.24 717.68 765.24 717.68 766.81 717.71 C767.91 717.7 769.01 717.7 770.14 717.69 C771.28 717.7 772.42 717.7 773.59 717.71 C775.99 717.72 778.39 717.71 780.8 717.7 C784.47 717.69 788.15 717.72 791.82 717.76 C794.16 717.76 796.5 717.76 798.83 717.75 C799.93 717.77 801.03 717.78 802.16 717.79 C806.73 717.74 809.73 717.59 813.75 715.32 C816.51 710.44 816.25 705.92 816.18 700.4 C816.18 699.27 816.19 698.13 816.19 696.96 C816.19 694.55 816.18 692.15 816.15 689.75 C816.12 686.07 816.13 682.4 816.15 678.72 C816.14 676.38 816.13 674.05 816.12 671.72 C816.12 670.61 816.13 669.51 816.13 668.38 C816.12 667.35 816.1 666.33 816.09 665.27 C816.08 663.92 816.08 663.92 816.07 662.55 C815.37 659.28 814.21 658.11 811.55 656.13 C809.05 655.53 809.05 655.53 806.3 655.61 C805.25 655.6 804.2 655.58 803.12 655.57 C802 655.58 800.87 655.59 799.71 655.59 C798.55 655.59 797.39 655.59 796.19 655.58 C793.74 655.58 791.28 655.59 788.83 655.6 C785.07 655.63 781.31 655.6 777.55 655.58 C775.17 655.58 772.78 655.59 770.4 655.59 C768.71 655.58 768.71 655.58 766.98 655.57 C765.94 655.58 764.89 655.6 763.81 655.61 C762.89 655.61 761.97 655.61 761.02 655.62 C757.72 656.3 756.55 657.44 754.55 660.13 Z " fill="#041D34" transform="translate(98.4468240737915,119.87415885925293)"/>
<path d="M0 0 C1.46 0.01 2.91 0.02 4.37 0.03 C41.24 0.34 41.24 0.34 50.38 9.31 C62.18 23.64 57.52 53.55 57.51 70.68 C57.51 74.23 57.51 77.78 57.52 81.34 C57.52 87.55 57.52 93.76 57.52 99.98 C57.52 109.21 57.52 118.45 57.53 127.69 C57.54 145.16 57.54 162.62 57.54 180.09 C57.54 193.58 57.54 207.07 57.55 220.57 C57.55 224.46 57.55 228.35 57.55 232.24 C57.55 233.2 57.55 234.17 57.55 235.17 C57.56 262.36 57.56 289.55 57.56 316.74 C57.56 317.76 57.56 318.79 57.56 319.84 C57.56 325.03 57.56 330.22 57.56 335.41 C57.56 336.96 57.56 336.96 57.56 338.53 C57.56 340.62 57.56 342.7 57.56 344.79 C57.56 377.21 57.57 409.63 57.58 442.05 C57.6 478.52 57.6 514.98 57.6 551.45 C57.6 555.34 57.6 559.23 57.6 563.12 C57.6 564.56 57.6 564.56 57.6 566.03 C57.6 581.41 57.61 596.79 57.62 612.18 C57.63 627.65 57.63 643.13 57.62 658.6 C57.62 667.78 57.62 676.96 57.63 686.13 C57.64 692.28 57.63 698.43 57.63 704.58 C57.62 708.07 57.62 711.56 57.63 715.05 C57.66 728.06 57.52 741.04 56.67 754.02 C56.62 755.02 56.57 756.01 56.51 757.04 C55.89 765.03 53.57 772.84 47.38 778.31 C35.04 786.53 16.32 784.46 2.05 784.44 C0.57 784.44 -0.9 784.44 -2.38 784.44 C-6.41 784.45 -10.43 784.44 -14.46 784.44 C-18.85 784.44 -23.25 784.44 -27.64 784.44 C-35.33 784.45 -43.02 784.45 -50.71 784.45 C-62.14 784.44 -73.57 784.44 -85.01 784.45 C-105.43 784.45 -125.85 784.45 -146.27 784.45 C-164.15 784.45 -182.02 784.45 -199.89 784.45 C-201.67 784.45 -201.67 784.45 -203.49 784.45 C-208.3 784.45 -213.12 784.45 -217.93 784.45 C-263.09 784.45 -308.24 784.45 -353.4 784.44 C-393.5 784.44 -433.61 784.44 -473.72 784.44 C-518.79 784.45 -563.87 784.45 -608.94 784.45 C-613.75 784.45 -618.55 784.45 -623.36 784.45 C-624.54 784.45 -625.72 784.45 -626.94 784.45 C-644.8 784.44 -662.66 784.45 -680.52 784.45 C-700.83 784.45 -721.14 784.45 -741.45 784.45 C-752.82 784.44 -764.18 784.44 -775.54 784.45 C-783.14 784.45 -790.73 784.45 -798.33 784.44 C-802.65 784.44 -806.98 784.44 -811.3 784.44 C-815.24 784.45 -819.18 784.44 -823.13 784.44 C-824.54 784.44 -825.95 784.44 -827.35 784.44 C-864.26 784.5 -864.26 784.5 -873.62 775.31 C-881.31 765.98 -880.3 751.74 -880.62 740.31 C-880.66 739.16 -880.69 738.02 -880.73 736.83 C-880.83 733.01 -880.89 729.2 -880.94 725.38 C-880.97 724.16 -881 722.94 -881.03 721.68 C-881.08 713.43 -880.42 705.14 -875.13 698.42 C-867.32 691.03 -857.47 690.81 -847.25 690.88 C-846.1 690.86 -844.94 690.84 -843.75 690.81 C-834.85 690.82 -826.69 692.01 -819.62 697.75 C-815.98 702.42 -814.07 706.66 -812.47 712.32 C-811.69 714.67 -811.69 714.67 -808.62 716.31 C-806.08 716.61 -806.08 716.61 -803.17 716.57 C-802.02 716.57 -800.88 716.58 -799.7 716.58 C-798.43 716.58 -797.17 716.57 -795.87 716.57 C-794.51 716.57 -793.15 716.58 -791.8 716.58 C-788.05 716.59 -784.29 716.59 -780.54 716.58 C-776.47 716.58 -772.4 716.59 -768.32 716.59 C-761.18 716.6 -754.03 716.61 -746.89 716.6 C-736.26 716.6 -725.63 716.61 -715.01 716.62 C-694.93 716.64 -674.85 716.65 -654.77 716.65 C-639.27 716.65 -623.77 716.65 -608.26 716.66 C-603.81 716.66 -599.35 716.66 -594.89 716.66 C-593.79 716.66 -592.68 716.66 -591.54 716.66 C-560.36 716.68 -529.19 716.68 -498.01 716.68 C-496.84 716.68 -495.66 716.68 -494.45 716.68 C-488.49 716.68 -482.52 716.68 -476.56 716.68 C-474.79 716.68 -474.79 716.68 -472.98 716.68 C-470.58 716.68 -468.19 716.68 -465.79 716.68 C-428.53 716.68 -391.26 716.7 -354 716.72 C-312.16 716.75 -270.33 716.77 -228.49 716.77 C-224.03 716.77 -219.58 716.77 -215.12 716.77 C-213.47 716.77 -213.47 716.77 -211.79 716.77 C-194.1 716.77 -176.41 716.78 -158.71 716.8 C-140.94 716.82 -123.17 716.82 -105.4 716.81 C-94.83 716.8 -84.27 716.8 -73.7 716.82 C-66.65 716.83 -59.6 716.83 -52.55 716.82 C-48.53 716.81 -44.5 716.81 -40.48 716.82 C-36.82 716.84 -33.17 716.83 -29.51 716.82 C-27.57 716.81 -25.63 716.83 -23.68 716.84 C-22.54 716.83 -21.39 716.82 -20.21 716.81 C-18.73 716.81 -18.73 716.81 -17.21 716.81 C-13.84 716.16 -12.66 715.04 -10.62 712.31 C-10.03 710.11 -10.03 710.11 -10.12 707.72 C-10.11 706.79 -10.1 705.87 -10.09 704.91 C-10.1 703.9 -10.11 702.88 -10.12 701.84 C-10.11 700.21 -10.11 700.21 -10.1 698.55 C-10.09 694.89 -10.1 691.23 -10.12 687.56 C-10.11 684.92 -10.11 682.28 -10.1 679.64 C-10.08 673.88 -10.08 668.13 -10.09 662.37 C-10.11 653.81 -10.1 645.25 -10.09 636.69 C-10.07 621.4 -10.07 606.11 -10.08 590.83 C-10.09 577.45 -10.09 564.07 -10.09 550.69 C-10.09 549.81 -10.09 548.92 -10.09 548.01 C-10.09 544.41 -10.09 540.81 -10.08 537.21 C-10.07 503.44 -10.08 469.67 -10.11 435.9 C-10.12 405.88 -10.12 375.85 -10.1 345.83 C-10.08 312.12 -10.07 278.42 -10.09 244.71 C-10.09 241.12 -10.09 237.52 -10.09 233.93 C-10.09 233.05 -10.09 232.16 -10.09 231.25 C-10.1 217.88 -10.09 204.51 -10.08 191.14 C-10.07 175.94 -10.07 160.74 -10.09 145.54 C-10.1 137.03 -10.11 128.51 -10.09 120 C-10.08 114.32 -10.09 108.64 -10.1 102.96 C-10.11 99.72 -10.11 96.48 -10.1 93.24 C-10.09 89.76 -10.1 86.27 -10.12 82.79 C-10.11 81.77 -10.1 80.76 -10.09 79.71 C-10.08 74.36 -10.08 74.36 -12.49 69.73 C-14.96 68.09 -17.24 67.19 -20.06 66.31 C-26.21 64.19 -29.81 62.16 -32.88 56.31 C-36.3 49.13 -35.88 42.02 -35.94 34.19 C-35.97 32.91 -36 31.62 -36.03 30.3 C-36.09 21.15 -35.02 13.91 -29.5 6.44 C-20.36 -0.32 -10.87 -0.22 0 0 Z " fill="#041D34" transform="translate(1179.625,375.6875)"/>
<path d="M0 0 C1.46 0.01 2.91 0.02 4.37 0.03 C41.24 0.34 41.24 0.34 50.38 9.31 C62.18 23.64 57.52 53.55 57.51 70.68 C57.51 74.23 57.51 77.78 57.52 81.34 C57.52 87.55 57.52 93.76 57.52 99.98 C57.52 109.21 57.52 118.45 57.53 127.69 C57.54 145.16 57.54 162.62 57.54 180.09 C57.54 193.58 57.54 207.07 57.55 220.57 C57.55 224.46 57.55 228.35 57.55 232.24 C57.55 233.2 57.55 234.17 57.55 235.17 C57.56 262.36 57.56 289.55 57.56 316.74 C57.56 317.76 57.56 318.79 57.56 319.84 C57.56 325.03 57.56 330.22 57.56 335.41 C57.56 336.96 57.56 336.96 57.56 338.53 C57.56 340.62 57.56 342.7 57.56 344.79 C57.56 377.21 57.57 409.63 57.58 442.05 C57.6 478.52 57.6 514.98 57.6 551.45 C57.6 555.34 57.6 559.23 57.6 563.12 C57.6 564.56 57.6 564.56 57.6 566.03 C57.6 581.41 57.61 596.79 57.62 612.18 C57.63 627.65 57.63 643.13 57.62 658.6 C57.62 667.78 57.62 676.96 57.63 686.13 C57.64 692.28 57.63 698.43 57.63 704.58 C57.62 708.07 57.62 711.56 57.63 715.05 C57.66 728.06 57.52 741.04 56.67 754.02 C56.62 755.02 56.57 756.01 56.51 757.04 C55.89 765.03 53.57 772.84 47.38 778.31 C35.04 786.53 16.32 784.46 2.05 784.44 C0.57 784.44 -0.9 784.44 -2.38 784.44 C-6.41 784.45 -10.43 784.44 -14.46 784.44 C-18.85 784.44 -23.25 784.44 -27.64 784.44 C-35.33 784.45 -43.02 784.45 -50.71 784.45 C-62.14 784.44 -73.57 784.44 -85.01 784.45 C-105.43 784.45 -125.85 784.45 -146.27 784.45 C-164.15 784.45 -182.02 784.45 -199.89 784.45 C-201.67 784.45 -201.67 784.45 -203.49 784.45 C-208.3 784.45 -213.12 784.45 -217.93 784.45 C-263.09 784.45 -308.24 784.45 -353.4 784.44 C-393.5 784.44 -433.61 784.44 -473.72 784.44 C-518.79 784.45 -563.87 784.45 -608.94 784.45 C-613.75 784.45 -618.55 784.45 -623.36 784.45 C-624.54 784.45 -625.72 784.45 -626.94 784.45 C-644.8 784.44 -662.66 784.45 -680.52 784.45 C-700.83 784.45 -721.14 784.45 -741.45 784.45 C-752.82 784.44 -764.18 784.44 -775.54 784.45 C-783.14 784.45 -790.73 784.45 -798.33 784.44 C-802.65 784.44 -806.98 784.44 -811.3 784.44 C-815.24 784.45 -819.18 784.44 -823.13 784.44 C-824.54 784.44 -825.95 784.44 -827.35 784.44 C-864.26 784.5 -864.26 784.5 -873.62 775.31 C-881.31 765.98 -880.3 751.74 -880.62 740.31 C-880.66 739.16 -880.69 738.02 -880.73 736.83 C-880.83 733.01 -880.89 729.2 -880.94 725.38 C-880.97 724.16 -881 722.94 -881.03 721.68 C-881.08 713.43 -880.42 705.14 -875.13 698.42 C-867.32 691.03 -857.47 690.81 -847.25 690.88 C-846.1 690.86 -844.94 690.84 -843.75 690.81 C-834.85 690.82 -826.69 692.01 -819.62 697.75 C-815.98 702.42 -814.07 706.66 -812.47 712.32 C-811.69 714.67 -811.69 714.67 -808.62 716.31 C-806.08 716.61 -806.08 716.61 -803.17 716.57 C-802.02 716.57 -800.88 716.58 -799.7 716.58 C-798.43 716.58 -797.17 716.57 -795.87 716.57 C-794.51 716.57 -793.15 716.58 -791.8 716.58 C-788.05 716.59 -784.29 716.59 -780.54 716.58 C-776.47 716.58 -772.4 716.59 -768.32 716.59 C-761.18 716.6 -754.03 716.61 -746.89 716.6 C-736.26 716.6 -725.63 716.61 -715.01 716.62 C-694.93 716.64 -674.85 716.65 -654.77 716.65 C-639.27 716.65 -623.77 716.65 -608.26 716.66 C-603.81 716.66 -599.35 716.66 -594.89 716.66 C-593.79 716.66 -592.68 716.66 -591.54 716.66 C-560.36 716.68 -529.19 716.68 -498.01 716.68 C-496.84 716.68 -495.66 716.68 -494.45 716.68 C-488.49 716.68 -482.52 716.68 -476.56 716.68 C-474.79 716.68 -474.79 716.68 -472.98 716.68 C-470.58 716.68 -468.19 716.68 -465.79 716.68 C-428.53 716.68 -391.26 716.7 -354 716.72 C-312.16 716.75 -270.33 716.77 -228.49 716.77 C-224.03 716.77 -219.58 716.77 -215.12 716.77 C-213.47 716.77 -213.47 716.77 -211.79 716.77 C-194.1 716.77 -176.41 716.78 -158.71 716.8 C-140.94 716.82 -123.17 716.82 -105.4 716.81 C-94.83 716.8 -84.27 716.8 -73.7 716.82 C-66.65 716.83 -59.6 716.83 -52.55 716.82 C-48.53 716.81 -44.5 716.81 -40.48 716.82 C-36.82 716.84 -33.17 716.83 -29.51 716.82 C-27.57 716.81 -25.63 716.83 -23.68 716.84 C-22.54 716.83 -21.39 716.82 -20.21 716.81 C-18.73 716.81 -18.73 716.81 -17.21 716.81 C-13.84 716.16 -12.66 715.04 -10.62 712.31 C-10.03 710.11 -10.03 710.11 -10.12 707.72 C-10.11 706.79 -10.1 705.87 -10.09 704.91 C-10.1 703.9 -10.11 702.88 -10.12 701.84 C-10.11 700.21 -10.11 700.21 -10.1 698.55 C-10.09 694.89 -10.1 691.23 -10.12 687.56 C-10.11 684.92 -10.11 682.28 -10.1 679.64 C-10.08 673.88 -10.08 668.13 -10.09 662.37 C-10.11 653.81 -10.1 645.25 -10.09 636.69 C-10.07 621.4 -10.07 606.11 -10.08 590.83 C-10.09 577.45 -10.09 564.07 -10.09 550.69 C-10.09 549.81 -10.09 548.92 -10.09 548.01 C-10.09 544.41 -10.09 540.81 -10.08 537.21 C-10.07 503.44 -10.08 469.67 -10.11 435.9 C-10.12 405.88 -10.12 375.85 -10.1 345.83 C-10.08 312.12 -10.07 278.42 -10.09 244.71 C-10.09 241.12 -10.09 237.52 -10.09 233.93 C-10.09 233.05 -10.09 232.16 -10.09 231.25 C-10.1 217.88 -10.09 204.51 -10.08 191.14 C-10.07 175.94 -10.07 160.74 -10.09 145.54 C-10.1 137.03 -10.11 128.51 -10.09 120 C-10.08 114.32 -10.09 108.64 -10.1 102.96 C-10.11 99.72 -10.11 96.48 -10.1 93.24 C-10.09 89.76 -10.1 86.27 -10.12 82.79 C-10.11 81.77 -10.1 80.76 -10.09 79.71 C-10.08 74.36 -10.08 74.36 -12.49 69.73 C-14.96 68.09 -17.24 67.19 -20.06 66.31 C-26.21 64.19 -29.81 62.16 -32.88 56.31 C-36.3 49.13 -35.88 42.02 -35.94 34.19 C-35.97 32.91 -36 31.62 -36.03 30.3 C-36.09 21.15 -35.02 13.91 -29.5 6.44 C-20.36 -0.32 -10.87 -0.22 0 0 Z " fill="#041D34" transform="translate(1051.625,247.6875)"/>
<path d="M0 0 C17.21 -0.72 30.49 1.21 43.72 13.22 C44.69 14.09 45.65 14.96 46.65 15.85 C48.84 18.09 48.84 18.09 48.84 20.09 C49.74 20.35 49.74 20.35 50.64 20.61 C56.19 22.23 61.62 24.04 67.04 26.06 C68.95 26.76 70.88 27.44 72.81 28.1 C81.44 31.05 85.57 34 89.93 42.07 C90.84 44.09 90.84 44.09 90.84 46.09 C91.75 46.18 92.66 46.27 93.6 46.36 C99.18 47.16 104.45 49.06 109.78 50.84 C110.83 51.18 111.87 51.51 112.95 51.86 C120.5 54.36 128.04 57.2 133.16 63.59 C133.63 64.19 134.11 64.78 134.61 65.39 C135.84 67.09 135.84 67.09 137.47 69.91 C139.35 72.9 141.25 73.7 144.66 74.55 C146.89 75.02 149.11 75.46 151.34 75.91 C163.1 78.42 173.77 81.59 181.84 91.09 C183.09 94.47 183.09 94.47 183.84 97.09 C186.02 98.12 186.02 98.12 188.84 99.09 C207.46 107.23 207.46 107.23 211.96 116.35 C213.66 121.61 213.22 127.22 213.21 132.7 C213.22 134.89 213.26 137.07 213.29 139.26 C213.37 148.38 212.77 155.23 206.09 162.09 C200.89 166.24 190.55 173.09 183.84 173.09 C183.63 174.33 183.63 174.33 183.41 175.59 C179.67 183.97 172.03 187.96 163.8 191.15 C158.01 193.23 152.15 194.4 146.09 195.36 C141.78 196.34 138.96 197.63 136.25 201.18 C135.81 201.94 135.36 202.69 134.91 203.47 C130.61 210.77 124.97 213.85 117.28 216.66 C116.49 216.95 115.71 217.25 114.89 217.55 C97.26 224.09 97.26 224.09 90.84 224.09 C90.6 224.96 90.35 225.83 90.09 226.72 C87.87 232.74 85.02 236.66 79.51 239.88 C74.77 242.04 69.77 243.42 64.78 244.89 C60.63 246.13 56.65 247.69 52.66 249.4 C50.84 250.09 50.84 250.09 48.84 250.09 C48.62 250.65 48.39 251.21 48.16 251.78 C43.5 259.98 34.7 265.59 25.84 268.09 C25.16 268.32 24.48 268.54 23.78 268.77 C16.34 270.85 8.5 270.33 0.84 270.09 C-0.43 270.06 -1.71 270.03 -3.02 270 C-11.95 269.61 -18.28 268.48 -24.47 261.78 C-33.83 249.69 -31.3 232.44 -31.29 217.91 C-31.29 215.9 -31.29 213.89 -31.29 211.88 C-31.3 206.46 -31.29 201.03 -31.29 195.61 C-31.29 189.91 -31.29 184.21 -31.29 178.51 C-31.29 168.95 -31.29 159.38 -31.29 149.81 C-31.28 138.78 -31.28 127.75 -31.29 116.71 C-31.29 107.21 -31.29 97.71 -31.29 88.21 C-31.29 82.55 -31.29 76.88 -31.29 71.22 C-31.3 65.9 -31.29 60.57 -31.29 55.25 C-31.29 53.3 -31.29 51.35 -31.29 49.41 C-31.32 18.39 -31.32 18.39 -24.41 7.28 C-17.31 0.38 -9.43 0.41 0 0 Z M39.84 93.09 C37.8 94.77 36.93 95.73 36.34 98.34 C36.28 99.21 36.22 100.08 36.16 100.97 C36.1 101.96 36.04 102.94 35.97 103.95 C35.75 109.31 35.7 114.67 35.71 120.03 C35.71 121.23 35.71 122.43 35.71 123.67 C35.71 126.2 35.71 128.72 35.71 131.25 C35.72 135.08 35.71 138.92 35.71 142.76 C35.71 145.22 35.71 147.69 35.71 150.16 C35.71 151.29 35.71 152.42 35.7 153.59 C35.72 158.81 35.82 164.01 36.16 169.22 C36.22 170.08 36.28 170.95 36.34 171.85 C36.93 174.46 37.8 175.42 39.84 177.09 C45.39 175.15 47.48 172.83 50.28 167.78 C57.25 157.31 72.44 154.71 83.84 151.09 C86.81 150.1 89.78 149.11 92.84 148.09 C92.84 139.51 92.84 130.93 92.84 122.09 C89.87 121.1 86.9 120.11 83.84 119.09 C80.17 117.85 76.5 116.57 72.84 115.28 C71.91 114.96 70.98 114.65 70.02 114.32 C61.63 111.34 53.8 107.79 49.16 99.84 C46.58 95.83 46.58 95.83 42.41 93.47 C41.14 93.28 41.14 93.28 39.84 93.09 Z " fill="#041D34" transform="translate(433.15625,376.90576171875)"/>
</svg>
