<svg width="57" height="56" viewBox="0 0 57 56" fill="none" xmlns="http://www.w3.org/2000/svg">
<circle cx="28.1475" cy="27.9658" r="27.4658" stroke="#E7EEFE"/>
<path d="M28.1475 26.4858C27.7375 26.4858 27.3975 26.1458 27.3975 25.7358V22.4058C27.3975 21.9958 27.7375 21.6558 28.1475 21.6558C28.5575 21.6558 28.8975 21.9958 28.8975 22.4058V25.7358C28.8975 26.1558 28.5575 26.4858 28.1475 26.4858Z" fill="#AA468F"/>
<path d="M28.1673 36.3158C25.5873 36.3158 23.0173 35.9058 20.5673 35.0858C19.6573 34.7858 18.9673 34.1358 18.6673 33.3158C18.3673 32.4958 18.4673 31.5558 18.9573 30.7358L20.2273 28.6158C20.5073 28.1458 20.7573 27.2658 20.7573 26.7158V24.6158C20.7573 20.5258 24.0773 17.2058 28.1673 17.2058C32.2573 17.2058 35.5773 20.5258 35.5773 24.6158V26.7158C35.5773 27.2558 35.8273 28.1458 36.1073 28.6158L37.3773 30.7358C37.8473 31.5158 37.9273 32.4458 37.6173 33.2958C37.3073 34.1458 36.6273 34.7958 35.7673 35.0858C33.3173 35.9158 30.7473 36.3158 28.1673 36.3158ZM28.1673 18.7158C24.9073 18.7158 22.2573 21.3658 22.2573 24.6258V26.7258C22.2573 27.5358 21.9373 28.7058 21.5173 29.3958L20.2473 31.5258C19.9873 31.9558 19.9273 32.4158 20.0773 32.8158C20.2273 33.2158 20.5673 33.5158 21.0473 33.6758C25.6473 35.2058 30.7073 35.2058 35.3073 33.6758C35.7373 33.5358 36.0673 33.2158 36.2173 32.7958C36.3773 32.3758 36.3273 31.9158 36.0973 31.5258L34.8273 29.4058C34.4073 28.7158 34.0873 27.5458 34.0873 26.7358V24.6358C34.0773 21.3658 31.4273 18.7158 28.1673 18.7158Z" fill="#AA468F"/>
<path d="M28.1474 38.8658C27.0774 38.8658 26.0274 38.4258 25.2674 37.6658C24.5074 36.9058 24.0674 35.8558 24.0674 34.7858H25.5674C25.5674 35.4658 25.8474 36.1258 26.3274 36.6058C26.8074 37.0858 27.4674 37.3658 28.1474 37.3658C29.5674 37.3658 30.7274 36.2058 30.7274 34.7858H32.2274C32.2274 37.0358 30.3974 38.8658 28.1474 38.8658Z" fill="#AA468F"/>
</svg>
