<svg width="24" height="25" viewBox="0 0 24 25" fill="none" xmlns="http://www.w3.org/2000/svg">
<path d="M16.19 2.5H7.81C4.17 2.5 2 4.67 2 8.31V16.68C2 20.33 4.17 22.5 7.81 22.5H16.18C19.82 22.5 21.99 20.33 21.99 16.69V8.31C22 4.67 19.83 2.5 16.19 2.5ZM9.11 17.4C9.11 17.68 8.89 17.9 8.61 17.9H5.82C5.54 17.9 5.32 17.68 5.32 17.4V12.78C5.32 12.15 5.83 11.64 6.46 11.64H8.61C8.89 11.64 9.11 11.86 9.11 12.14V17.4ZM13.89 17.4C13.89 17.68 13.67 17.9 13.39 17.9H10.6C10.32 17.9 10.1 17.68 10.1 17.4V8.24C10.1 7.61 10.61 7.1 11.24 7.1H12.76C13.39 7.1 13.9 7.61 13.9 8.24V17.4H13.89ZM18.68 17.4C18.68 17.68 18.46 17.9 18.18 17.9H15.39C15.11 17.9 14.89 17.68 14.89 17.4V13.85C14.89 13.57 15.11 13.35 15.39 13.35H17.54C18.17 13.35 18.68 13.86 18.68 14.49V17.4Z" fill="white"/>
</svg>
