<svg width="24" height="25" viewBox="0 0 24 25" fill="none" xmlns="http://www.w3.org/2000/svg">
<path d="M20.0402 7.32006L14.2802 3.29006C12.7102 2.19006 10.3002 2.25006 8.79023 3.42006L3.78023 7.33006C2.78023 8.11006 1.99023 9.71006 1.99023 10.9701V17.8701C1.99023 20.4201 4.06023 22.5001 6.61023 22.5001H17.3902C19.9402 22.5001 22.0102 20.4301 22.0102 17.8801V11.1001C22.0102 9.75006 21.1402 8.09006 20.0402 7.32006ZM12.7502 18.5001C12.7502 18.9101 12.4102 19.2501 12.0002 19.2501C11.5902 19.2501 11.2502 18.9101 11.2502 18.5001V15.5001C11.2502 15.0901 11.5902 14.7501 12.0002 14.7501C12.4102 14.7501 12.7502 15.0901 12.7502 15.5001V18.5001Z" fill="white"/>
</svg>
