<svg width="25" height="24" viewBox="0 0 25 24" fill="none" xmlns="http://www.w3.org/2000/svg">
<path d="M12.2719 10.87C12.1719 10.86 12.0519 10.86 11.9419 10.87C9.56187 10.79 7.67188 8.84 7.67188 6.44C7.67187 3.99 9.65188 2 12.1119 2C14.5619 2 16.5519 3.99 16.5519 6.44C16.5419 8.84 14.6519 10.79 12.2719 10.87Z" stroke="#072366" stroke-width="1.5" stroke-linecap="round" stroke-linejoin="round"/>
<path d="M7.27203 14.56C4.85203 16.18 4.85203 18.82 7.27203 20.43C10.022 22.27 14.532 22.27 17.282 20.43C19.702 18.81 19.702 16.17 17.282 14.56C14.542 12.73 10.032 12.73 7.27203 14.56Z" stroke="#072366" stroke-width="1.5" stroke-linecap="round" stroke-linejoin="round"/>
</svg>
