<svg width="13" height="12" viewBox="0 0 13 12" fill="none" xmlns="http://www.w3.org/2000/svg" transform='rotate(180)'>
<g clip-path="url(#clip0_6_1402)">
<path fill-rule="evenodd" clip-rule="evenodd" d="M6.90211 7.70741C6.81401 7.79549 6.69453 7.84497 6.56994 7.84497C6.44536 7.84497 6.32588 7.79549 6.23778 7.70741L3.57996 5.04959C3.53508 5.00625 3.49929 4.95441 3.47467 4.89709C3.45004 4.83977 3.43708 4.77812 3.43654 4.71573C3.436 4.65335 3.44789 4.59148 3.47151 4.53374C3.49513 4.476 3.53002 4.42354 3.57413 4.37943C3.61825 4.33532 3.6707 4.30043 3.72844 4.27681C3.78618 4.25318 3.84805 4.2413 3.91043 4.24184C3.97282 4.24238 4.03447 4.25534 4.09179 4.27997C4.14911 4.30459 4.20095 4.34038 4.24429 4.38525L6.56994 6.7109L8.89559 4.38525C8.9842 4.29967 9.10288 4.25232 9.22607 4.25339C9.34926 4.25446 9.4671 4.30387 9.55421 4.39098C9.64132 4.47809 9.69073 4.59593 9.6918 4.71911C9.69287 4.8423 9.64551 4.96098 9.55993 5.04959L6.90211 7.70741Z" fill="black"/>
</g>
<defs>
<clipPath id="clip0_6_1402">
<rect width="11.2759" height="11.2759" fill="white" transform="translate(0.931641 0.327881)"/>
</clipPath>
</defs>
</svg>
