<svg width="26" height="17" viewBox="0 0 26 17" fill="none" xmlns="http://www.w3.org/2000/svg">
<path fill-rule="evenodd" clip-rule="evenodd" d="M8.85212 3.47267C9.56121 2.37515 10.5986 1.52938 11.8164 1.05587C13.0343 0.582363 14.3705 0.505255 15.6347 0.835534C16.8989 1.16581 18.0267 1.88663 18.8573 2.89531C19.6879 3.90398 20.1791 5.14906 20.2607 6.45316C20.9394 6.43392 21.6152 6.54931 22.249 6.79267C22.8828 7.03603 23.4622 7.40254 23.9536 7.87103C24.445 8.33952 24.8387 8.90072 25.112 9.52222C25.3854 10.1437 25.5329 10.8132 25.546 11.492C25.5592 12.1708 25.4377 12.8455 25.1887 13.4772C24.9397 14.1088 24.568 14.6848 24.0951 15.172C23.6222 15.6592 23.0575 16.0479 22.4336 16.3156C21.8097 16.5834 21.1389 16.7249 20.46 16.7319H7.14095C6.18365 16.731 5.23753 16.5262 4.3656 16.131C3.49366 15.7358 2.71591 15.1595 2.08415 14.4402C1.45239 13.721 0.981102 12.8754 0.701679 11.9598C0.422255 11.0442 0.341106 10.0796 0.463634 9.13014C0.586162 8.18072 0.909556 7.26829 1.41228 6.45362C1.91501 5.63895 2.58552 4.94073 3.37919 4.40546C4.17285 3.87019 5.07145 3.51014 6.01514 3.3493C6.95883 3.18846 7.92596 3.23052 8.85212 3.47267ZM16.618 9.54969C16.5459 9.63995 16.4567 9.71511 16.3555 9.77087C16.2543 9.82662 16.1431 9.86188 16.0282 9.87461C15.9134 9.88735 15.7972 9.87732 15.6862 9.84509C15.5752 9.81287 15.4717 9.75908 15.3815 9.68681L13.8802 8.4843V12.5161C13.8802 12.7492 13.7876 12.9728 13.6227 13.1377C13.4579 13.3025 13.2343 13.3951 13.0011 13.3951C12.768 13.3951 12.5444 13.3025 12.3796 13.1377C12.2147 12.9728 12.1221 12.7492 12.1221 12.5161V8.4843L10.6196 9.68564C10.5294 9.75775 10.4258 9.81139 10.3149 9.84349C10.204 9.8756 10.0878 9.88554 9.97308 9.87275C9.85831 9.85996 9.74719 9.82469 9.64605 9.76896C9.54492 9.71323 9.45575 9.63812 9.38364 9.54793C9.31153 9.45773 9.25789 9.35422 9.22579 9.2433C9.19369 9.13237 9.18374 9.01621 9.19653 8.90145C9.20932 8.78668 9.24459 8.67556 9.30032 8.57443C9.35605 8.47329 9.43116 8.38412 9.52136 8.31201L12.4491 5.97145C12.6033 5.84628 12.7955 5.77726 12.9941 5.77572H13.0035C13.2144 5.77572 13.4067 5.85073 13.5579 5.97497L16.4809 8.31201C16.5712 8.38415 16.6463 8.47337 16.7021 8.57457C16.7579 8.67578 16.7931 8.78699 16.8058 8.90183C16.8186 9.01668 16.8085 9.13291 16.7763 9.24387C16.7441 9.35483 16.6903 9.45953 16.618 9.54969Z" fill="#AA468F"/>
</svg>
